<svg xmlns="http://www.w3.org/2000/svg" enable-background="new 0 0 68 68" viewBox="0 0 68 68" width="68" height="68"><path fill="#a2a2f9" d="M16.6178093,59.4712753c1.694273,1.7110863,3.3775845,2.7180252,4.3582554,3.235096     c2.3400955,0.8885498,5.8415146,1.9002266,10.1698418,2.067379c5.3576107,0.2111282,9.6419621-0.9676971,12.2372189-1.9002266     c1.5043793-0.8093491,4.2843475-2.5688362,6.5541039-5.8591232c2.5336685-3.6685181,3.1055222-7.3282318,3.2550659-9.1757278     c0.0176086-0.1055641,0.0176086-0.2111282,0.0263634-0.307888c-2.4544678-0.0880051-4.9089355-0.1847649-7.3634567-0.2727203     c-8.9997635-0.3343048-18.008337-0.6686134-27.0169086-0.9941139c-2.5336666-0.0967598-7.3537579-0.0463791-7.3537579-0.0463791     c-0.0088062,0.3078918,0.0078621,1.1636734,0.0342798,1.6387138c0.0967588,1.997036,0.6070251,5.2872734,2.7271852,8.6390953     c0.2859201,0.4508629,0.5828352,0.8740997,0.8863659,1.2710648"/><path fill="none" d="M16.6178093,59.4712753c1.694273,1.7110863,3.3775845,2.7180252,4.3582554,3.235096     c2.3400955,0.8885498,5.8415146,1.9002266,10.1698418,2.067379c5.3576107,0.2111282,9.6419621-0.9676971,12.2372189-1.9002266     c1.5043793-0.8093491,4.2843475-2.5688362,6.5541039-5.8591232c2.5336685-3.6685181,3.1055222-7.3282318,3.2550659-9.1757278     c0.0176086-0.1055641,0.0176086-0.2111282,0.0263634-0.307888c-2.4544678-0.0880051-4.9089355-0.1847649-7.3634567-0.2727203     c-8.9997635-0.3343048-18.008337-0.6686134-27.0169086-0.9941139c-2.5336666-0.0967598-7.3537579-0.0463791-7.3537579-0.0463791     c-0.0088062,0.3078918,0.0078621,1.1636734,0.0342798,1.6387138c0.0967588,1.997036,0.6070251,5.2872734,2.7271852,8.6390953     c0.2859201,0.4508629,0.5828352,0.8740997,0.8863659,1.2710648"/><path fill="#474646" d="M19.1637936,30.1910076l2.0485516-3.9255142c0.2357731-0.4517956,0.8005409-0.6160011,1.2417984-0.3610535    l4.0120811,2.3180904l-0.5987835,2.9890099"/><polygon fill="#474646" points="45.072 30.42 43.181 29.83 42.323 26.187 37.823 33.794 40.609 35.508"/><ellipse cx="33.632" cy="24.541" fill="#f9b938" rx="9.459" ry="9.862" transform="rotate(-89.542 33.632 24.541)"/><ellipse cx="53.981" cy="34.318" fill="#e4e3ff" rx="1.058" ry="1.053"/><ellipse cx="8.981" cy="57.461" fill="#e4e3ff" rx="1.058" ry="1.053"/><path fill="#474646" d="M11.1405315,46.5806465c0,0.4310646,0.1231766,0.8533783,0.3694773,1.2580261    c1.1349049,1.9618683,4.9001818,3.6333504,10.0730829,4.6098518c3.1583042,0.5982742,6.8356285,0.9413338,10.7680588,0.9413338    c3.914875,0,7.5833931-0.3343086,10.7240829-0.9325294c5.1817093-0.9765015,8.9557915-2.6392326,10.1082535-4.6010437    c0.2463531-0.4135056,0.3782845-0.8357658,0.3782845-1.2756386c0-0.1671562-0.0175591-0.3255005-0.0615883-0.4838486    c0-0.0351715-0.0087547-0.0792007-0.0175591-0.1143723c-0.4838486-1.7682953-3.0702972-3.3430176-6.9588051-4.4691162    c-3.7564735-1.0820656-8.7182426-1.7418747-14.1726685-1.7418747c-5.6479416,0-10.7856712,0.7125893-14.586174,1.8738594    C13.6830053,42.8769569,11.1405315,44.6364441,11.1405315,46.5806465z"/><path fill="#e4e3ff" d="M46.9373245,41.6452942c-0.1143723,1.9882317-0.4926529,3.8796463-1.0821228,5.6127701    c-0.6598053,1.9618149-1.5923347,3.7124977-2.7359886,5.1904602c-3.1583061,0.5982742-6.8356323,0.9413338-10.7680626,0.9413338    c-3.9148712,0-7.5833893-0.3343086-10.7240829-0.9325294c-1.5131874-1.8738594-2.3137321-4.0291862-2.7887745-6.1933784    c-0.3519192-1.6099472-0.5190735-3.2286453-0.6598072-4.7506409c-0.0088062-0.1407356-0.0264187-0.2815247-0.0352249-0.4134521    c-0.4398727-4.6538811,0.3343067-8.4895554,1.0205326-10.9088497l3.6333485-1.5923347l0.9500847,0.8093491l2.1202145,1.8035183    l4.5482616-1.9266415l3.5189781,3.1846676l1.3900108-1.293251l2.0233994-1.8914165l1.4779663,1.5307465l2.2697525,2.3312893    l1.4075699-0.9676971l2.5688934-1.7594891C46.611824,34.2994499,47.1660118,38.1263161,46.9373245,41.6452942z"/><polygon fill="#474646" points="56.845 24.028 53.16 24.637 52.735 19.391 46.734 18.767 46.475 14.83 40.067 14.519 41.622 9.501 47.941 10.653"/><path fill="#e4e3ff" d="M56.4731522,27.0307083c-0.2430801-0.1109562-2.0013504-4.1739368-2.0013504-4.1739368l-4.213707-0.80723    l-0.3548164-4.9497452l-5.6789894,0.0219421l-1.9733887-5.0717344l-4.9539795,0.2353907l-1.4872246-4.8498178    c5.8620033-5.7101908,15.2079544-5.4427819,20.4511375,0.1120839    C61.0470047,12.6183453,61.2639008,21.3436127,56.4731522,27.0307083"/><path fill="#fff" d="M46.3412209,58.4368057c0.0335083,0.074295-0.9560852,0.6257172-2.65979,1.290451     c-1.7008972,0.6634216-4.1300659,1.4141693-6.8907776,1.8601227c-2.758667,0.4571381-5.3001709,0.5254517-7.1239624,0.4375     c-1.8267822-0.0864258-2.9406738-0.2921906-2.9326172-0.3737793c0.0089722-0.2003174,4.5135803,0.2172089,9.9525757-0.6981049     C42.1330605,60.0830765,46.2687721,58.2499313,46.3412209,58.4368057z"/><g><path d="M34.272953 20.5941257c-.3175659-.1415405-.6994019-.2160034-1.0979614-.2109985-.0646362-.9951782-.1450195-1.6068726-.2284546-1.6062622-.0845947.0006104-.1565552.6296997-.2062988 1.6497803-.0926514.0169678-.1851807.0273438-.27771.0552979-.6384277.1964111-1.2418213.6159668-1.6798096 1.2231445-.2158813.3049316-.3950195.6615601-.4631348 1.0793457-.0762939.4081421.0506592.9271851.3499756 1.2597046.571228.6220703 1.3048706.8838501 2.0043945 1.1490479.0153809 1.5563354.0595703 2.9613647.1207275 4.0049438-.0072021-.0009155-.0148926.000061-.0220337-.0009766-.9534912-.1144409-1.6401978-.6314697-2.0698853-.9737549-.4293213-.3644409-.6418457-.6051025-.6814575-.5740356-.0306396.0223999.1136475.3161621.5091553.7554932.4012451.4129028 1.0742188 1.0395508 2.1813354 1.2427368.0361328.0075073.0755615.0057983.1124878.0113525.0620117.8701782.1369629 1.3927002.2143555 1.3920898.0765991-.0005493.1430054-.5144043.1918335-1.3683472 1.0112305-.0362549 2.1605225-.711792 2.6435547-1.9091797.1348267-.3442993.2555542-.7716064.1018066-1.2179565-.1321411-.4348755-.4667358-.7779541-.805603-.9829102-.5892944-.3867798-1.2268066-.6002197-1.8579102-.8286743-.0131836-1.4761353-.0524902-2.8197021-.1077271-3.8579712.3171387-.0169067.6266479.0276489.9015503.1309814.9019165.3317871 1.4073486 1.0283203 1.6643066 1.5039673.2545166.4946899.3216553.8114014.3745728.8007813.0335693-.0036011.053833-.3379517-.1463013-.9033203C35.7924843 21.8768406 35.3090858 21.0482883 34.272953 20.5941257zM35.3238564 27.5540257c-.3718872.9744873-1.2512817 1.5500488-2.0691528 1.6412354.0431519-.9906006.0664063-2.305481.0618286-3.7666626.5515747.1977539 1.0813599.3924561 1.5057983.6690063C35.4178505 26.4512424 35.5702553 26.967905 35.3238564 27.5540257zM32.6691322 24.5045872c-.6018066-.2294922-1.1725464-.487793-1.5172729-.8654175-.3952637-.4277954-.2337036-1.0925903.1167603-1.5952148.3450928-.5062256.8453369-.8766479 1.3552856-1.0539551.0309448-.0105591.0621338-.0134888.0931396-.022522C32.6815834 21.936594 32.6637611 23.1616917 32.6691322 24.5045872zM54.4409218 33.0507889c-.4906006-.1605225-.9711304.0028687-1.2363281.2488403-.2751465.24646-.3635254.5424805-.3699951.7304077-.0064087.1929321.0474854.2893066.0880127.2883911.0957031.0114746.1322632-.4020386.5561523-.65625.2011719-.12146.4956665-.168335.7615967-.0540771.2644043.1074829.4799194.3886719.4775391.7103271.0023804.3215942-.2131348.6028442-.4775391.7102661-.2659302.1143188-.5604248.0673828-.7615967-.0540161-.4238892-.2542114-.4604492-.6677246-.5561523-.65625-.0405273-.0009155-.0944214.0953979-.0880127.2883911.0064697.1879272.0948486.4838867.3699951.7304077.2651978.2459717.7457275.4093628 1.2363281.2488403.4854736-.1435547.9258423-.6563721.9197998-1.2676392C55.3667641 33.7070999 54.9263954 33.1943436 54.4409218 33.0507889zM9.4409208 56.1936111c-.4906006-.1604614-.9711304.0028687-1.2363281.2488403-.2751465.246521-.3635254.5424805-.3699951.7304688-.0064087.1929321.0474854.2892456.0880127.2883301.0957031.0115356.1322632-.4020386.5561523-.65625.2011719-.1213989.4956665-.168335.7615967-.0540161.2644043.1074829.4799194.3886719.4775391.7102661.0023804.3216553-.2131348.6028442-.4775391.7103271-.2659302.1142578-.5604248.0673828-.7615967-.0540771-.4238892-.2541504-.4604492-.6677246-.5561523-.65625-.0405273-.0009155-.0944214.095459-.0880127.2883911.0064697.1879883.0948486.4839478.3699951.7304688.2651978.2459106.7457275.4093018 1.2363281.2488403.4854736-.1436157.9258423-.6563721.9197998-1.2677002C10.3667631 56.8499832 9.9263945 56.3372269 9.4409208 56.1936111z"/><path d="M52.7462196 44.2475662c-1.4224014-1.3992004-3.8462257-2.3403282-5.7559204-2.9289551.0916748-.8646278.094944-1.8573265.0570679-2.7261353-.1442375-3.2108078-.8788986-5.8261299-1.8764648-8.4881573-.0935059.0632324-.1974487.1334229-.2921143.1974487-.3610153-.1728821-.5166626-.2080097-1.5525513-.6142578-.0198669-.1020622-.2927361-1.538229-.3500366-1.7099609.3987541-1.0736389.5669746-2.1749802.5400391-2.7399902.0100098-.4100342 0-.6199951-.0200195-.6199951-.1152496 0-.0681992 1.8934612-.9400024 3.5699463-.5037231 1.0930786-1.3659058 2.307373-2.6763916 3.3528442-.8143311-.8479614-1.6481323-1.7162476-2.5222168-2.6265259-1.0996094 1.0181885-2.2432251 2.0770264-3.4255371 3.171751-1.1184082-1.0184307-2.2723999-2.069273-3.4575806-3.1484966-1.289856.5429077-2.6144409 1.1004639-3.9602051 1.6669922-1.6171627-1.7153225-2.4180908-3.9016266-2.4180908-6.1365356.0614376-4.1328888 2.8151493-7.3778973 6.4000244-8.5800171 5.1979485-1.8363142 11.201828 1.2254105 12.5700073 6.4100342.4000244 1.4500122.3499756 2.3200073.4299927 2.3200073.0200195 0 .0300293-.210022.0300293-.6199951.0099487-.2000122 0-.4500122-.0400391-.75-.0299683-.3000488-.0700073-.6400146-.1699829-1.0200195-1.2135696-5.5159416-7.560112-8.7676105-13.0100098-6.9000244-3.791872 1.2211132-6.7783642 4.699604-6.8599854 9.1300049.0027466.5904541.0626221 1.1751099.1674194 1.7476196-.7367039-.4326973-1.2086868-.758194-1.5970459-.7356567-.2990723-.0007324-.586853.1140747-.7996826.3041992-.248394.2217274-.2930183.4220028-.4006958.6106567-.5565491 1.1551037-1.2696266 2.5848541-1.5706787 3.4229126-.1176147.0513916-.2311401.1010132-.348999.1525269-.0950241.3887901-.4557724 1.5503674-.7321777 3.1437969-.5285625 2.9564743-.5663433 5.3976593-.307373 8.3220825-1.9774179.6109619-3.6005869 1.3339233-4.7507944 2.1418457-1 .6800537-1.6099854 1.460022-1.8200073 2.0599976-.2299805.6100464-.1499634.9500122-.1499634.9500122.115447 0-.1696415-1.3492889 2.1099854-2.7999878 1.1291504-.7400513 2.7203369-1.404541 4.6472788-1.9664917.2482224 2.5604744.5352097 4.8952522 1.4524536 7.2583618.7310791 1.897686 1.5767326 2.93573 1.6360474 3.0379028-2.9122238-.576458-8.2759495-1.9612846-9.5857553-4.6297607-.2600098-.5499878-.2200317-.9000244-.2600098-.9000244-.0100098 0-.0200195.0900269-.0200195.25.0208015.3325768.0895557.5381203.203186.7929077.1678219 3.8681145 1.6694107 7.4475594 3.1668091 9.3370972.4000244.5300293.6199951.8099976.6500244.8099976 0-.0299683-.1799927-.3300171-.5400391-.8800049-1.441-2.1238823-2.5910177-5.1697845-2.8458862-8.5693359 2.6973639 3.5503922 12.6803484 4.9212608 11.3891001 4.7017212 8.0031662 1.0954781 20.6492767 1.0147743 27.586792-2.6723633 1.4279709-.7843819 1.913517-1.3538704 2.0136719-1.434082-.3961182 2.8597412-1.4517822 5.5771484-2.9936523 7.8240967-1.7199707 2.5499878-4.0499878 4.5499878-6.4799805 5.8699951-3.8699951 1.4099731-7.7600098 1.9699707-11.1700439 1.9500122-3.4199829-.0100098-6.3899536-.5700073-8.7799683-1.2400513-.5900269-.1699829-1.1500244-.3499756-1.6799927-.5299683-.7345581-.2645187-.3757687-.0868912-1.3900146-.6400146-2.3796539-1.3760986-3.4762592-2.6799927-3.6300049-2.6799927 0 .0200195.1199951.1599731.3500366.4099731 1.1289978 1.1760902 2.4145985 2.0914154 3.8099976 2.8800049.2599487.1500244.5.210022.7599487.3200073.5300293.1900024 1.0900269.3800049 1.6900024.5700073 2.3900146.7299805 5.4000244 1.3400269 8.8699951 1.3900146 3.4700317.0499878 7.3700562-.460022 11.4000244-1.9000244 2.5900269-1.3899536 4.960022-3.4099731 6.7600098-6.0499878 1.789856-2.6052246 2.9549561-5.7744141 3.2532349-9.1627197.2225952-.4017944.371582-.8521729.37677-1.34729C53.8862343 45.6275101 53.3362465 44.8175125 52.7462196 44.2475662zM42.6862221 28.667551c.1300049.4699707.2399902.8999634.3499756 1.2999878.2330093.0635643 1.3227386.3602943 1.7075195.4255371-1.1310425.7645874-2.3311768 1.5757446-3.6174927 2.4452496-.3044434-.3170776-.6273804-.6533813-.9415283-.9805279C41.380619 30.8552952 42.1840248 29.7098484 42.6862221 28.667551zM23.8089638 27.0515842c.4234142 1.5344257 1.1177006 2.7308006 2.0670166 3.762085-.9921875-.8470459-2.0005493-1.7081299-3.0246582-2.5825195-1.0675049.4666138-2.1558228.9423218-3.2478027 1.4196167C22.2701206 25.5670853 20.9975548 25.4536629 23.8089638 27.0515842zM19.9255409 48.8451614c-1.3650284-3.5522842-1.7581787-9.3706703-1.5123291-12.5891113.1906986-2.5948105.5751324-3.9826965 1.0178833-5.8338604 1.1184692-.4916992 2.2233276-.977417 3.3118896-1.4559937 1.0393677.8815308 2.0632935 1.7501221 3.0695801 2.6036377 1.550293-.6608276 3.0668335-1.307312 4.5443726-1.9371338 1.2272949 1.1040649 2.4223022 2.1790161 3.5803833 3.2208233 1.1740112-1.1036358 2.3094482-2.1711407 3.4013062-3.1975689 1.3101196 1.3357544 2.5553589 2.6052227 3.7268066 3.7995586 1.3959351-.9716797 2.7029419-1.8813457 3.9082642-2.720335.9564018 2.5143986 1.6104202 4.841383 1.8529663 7.8710308.0770264.9788208.0876465 1.7391968.0901489 2.2536621-.0008545.5062256-.0002441.772522.0197144.7821655-.0001831.00177-.0001221.0037231-.0003052.0054932 0 .0003052-.000061.0006104-.000061.0009155-.1709976.0591354-.0541992 5.447403-3.9326782 10.6120605-7.1033287 1.190609-14.111702 1.150135-21.208313-.0800781C21.7349434 52.0804176 20.7121429 50.9089432 19.9255409 48.8451614zM50.4262123 49.7775345c-2.0490837 1.0998611-4.4956894 1.769043-6.7423706 2.2445068 2.1337738-3.2059326 3.2155342-6.8512726 3.267334-10.0422974 1.7496567.5418701 4.0358467 1.4328575 5.3450317 2.7177734.5300293.5300293.9500122 1.1700439.9400024 1.8800049C53.2560005 47.9617348 51.6394043 49.1256828 50.4262123 49.7775345zM60.1402626 16.2663059c-.1060181-1.8045044-.5280151-3.7890625-1.4730835-5.7155762C56.4244728 6.049818 51.899231 3.2753308 47.1449623 3.0045257c-3.7469254-.3062935-7.9004059.9401724-10.9485474 3.6647949L35.7288857 7.08143c-.4760742.171814-.0895386.7445679-.1065063.8314209.4921875 1.5968633.9752197 3.164063 1.4473267 4.6956792 1.1235352-.0562744 2.2192993-.111145 3.3016968-.1654053-.0884399.2832642-.1768188.5671387-.2651978.8544312-.1599731.5100098-.3099976 1.0199585-.4699707 1.5199585 1.1733398.0549927 2.3161011.1099854 3.4467773.1650391.3241577.8233032.6418457 1.630249.9517212 2.4174805.7929688-.0076904 1.5535889-.0150146 2.3098145-.0223389.036438.5560913.0772705 1.1084595.1116943 1.6498413 1.1869507.1121826 2.3075562.2236328 3.3804321.3275757.0808105 1.0076904.1577759 1.9684448.2296143 2.8649292 1.0939941.1960449 2.0943604.3752441 3.0106201.5394287.1871338 1.0379028.2609253 1.8596191-.0706787 2.0680542.6500244-.1199951 1.2299805-.2299805 1.7399902-.3200073.105835-.0211182.2004395-.0423584.2963257-.0634766.0401611.0861206.0848389.1820679.12323.2644043.2480469.5178223.4647217.9550171.6480713 1.3057251.3600464.7007446.6160889 1.0574951.6593018 1.0165405 0 0-.199646-.3606567-.5166626-1.0854492-.3256836-.7616577-.7894897-1.8463135-1.3777466-3.2219238-1.1793213-.2411499-2.5629883-.5241089-4.1287842-.8442993-.0964966-1.5203247-.203186-3.2014771-.3189087-5.0248413-1.7782593-.0033569-3.6903687-.006958-5.7171631-.0108032-.6251831-1.6256104-1.2805786-3.329834-1.9622192-5.102417-1.5934448.0715332-3.237915.1453857-4.9274902.2212524-.4213257-1.3818359-.852478-2.7957764-1.291748-4.2364507-.0803833-.277832-.0579834-.1557007-.0479126-.194519l.4333496-.3800659c2.9262619-2.6102066 6.9094772-3.7996149 10.4824219-3.5184937 4.4305611.2351477 8.8484573 2.7859077 11.0901489 7.1564946.9293213 1.8427124 1.3648682 3.7565308 1.4962158 5.5068359.2010536 2.7198009-.3164825 5.583952-1.6044922 8.1004028-.9117432 1.7620239-1.6740723 2.5853882-1.6090088 2.6342773.0169678.0142822.2012329-.1914063.5385132-.598877.3499756-.3970337.7940674-1.0437012 1.291748-1.9185181C59.710392 22.0063057 60.3008118 19.057518 60.1402626 16.2663059zM54.9403725 24.2248631c-.4742432.0661011-1.0158081.1396484-1.6341553.2226563-.036377-.5092163-.06604-1.072937-.1084595-1.6663818.4057007.0726929.7991333.1431885 1.1672363.2091675C54.5744667 23.4397678 54.762516 23.8432713 54.9403725 24.2248631zM49.7938271 18.8213596c-.8916626-.1013794-1.8202515-.2033081-2.7875977-.3138428-.024353-.3731079-.048645-.7546387-.072998-1.1355591.9457397-.0091553 1.8609009-.0180054 2.7423096-.0265503C49.7159462 17.8498631 49.7551918 18.3397923 49.7938271 18.8213596zM42.8268471 14.3318577c-.767395-.0352783-1.5390625-.0703735-2.3306274-.1143188l.2299805-.7299805c.1086426-.3646851.2192993-.7212524.3259277-1.0785522.3317261-.0166016.6704712-.0335693.9980469-.0499878C42.3142738 13.0299168 42.5707436 13.681406 42.8268471 14.3318577z"/><path d="M25.7698402 49.2760696c.0720825-.0684814-.604187-.8092651-1.4785156-2.1444092-.8753662-1.3282471-1.8956909-3.3050537-2.4414673-5.666748-.548584-2.3604736-.4994507-4.5848999-.3102417-6.1643677.19104-1.585022.4682007-2.5485229.3730469-2.578064-.0726318-.0266113-.5084839.8968506-.8222656 2.508606-.3111572 1.6013184-.4386597 3.9203491.1332397 6.3792114.5678101 2.4594116 1.7009277 4.4885254 2.6959229 5.7828979C24.9162636 48.6984329 25.7164345 49.332222 25.7698402 49.2760696zM49.9970741 6.5538421c-2.3703003-.8578491-4.7070313-.8737183-6.3087158-.6256104-1.6166992.2483521-2.5405884.6791992-2.5145874.749939.0281982.0974731.9883423-.1726685 2.5656738-.2982788 1.5686646-.1259155 3.7848511-.0371094 6.0414429.7793579 2.267334.7908936 4.0419922 2.1242681 5.2046509 3.1858525 1.1653442 1.0725708 1.7799072 1.8574829 1.8594971 1.7973633.0637817-.0432739-.4238281-.9318848-1.5411377-2.1217651C54.192997 8.8457127 52.3773842 7.3847747 49.9970741 6.5538421zM19.1649818 15.6006565c2.0099487.5830078 3.6794434.9173584 3.7289429.7468872.0494385-.1705322-1.539917-.781311-3.5498657-1.3643188-2.0100098-.5829468-3.6795053-.9172974-3.7289438-.7468262S17.1550331 15.0177097 19.1649818 15.6006565zM23.403019 15.1995945c.130249-.1206055-.4766846-.9876099-1.3556519-1.9364014-.8789673-.9488525-1.6970215-1.6202393-1.8272705-1.4995728s.4767456.9876099 1.3556519 1.9364014C22.4547157 14.6488743 23.272831 15.320261 23.403019 15.1995945zM25.1002846 13.3942356c.1520996-.0915527-.5961914-1.6140747-1.6713257-3.4006958s-2.0700684-3.1607671-2.222168-3.0692143c-.1520996.0914917.5961914 1.6140752 1.6713867 3.4006963C23.9533119 12.1116428 24.948185 13.4857883 25.1002846 13.3942356z"/></g></svg>