<svg xmlns="http://www.w3.org/2000/svg" width="64" height="64" id="currency">
  <path fill="#fbfbfb" d="M4.227 48.332a28.026 28.026 0 0 1 28.026-28.026 28.026 28.026 0 0 1 28.026 28.026H32.253z"></path>
  <path fill="#f3f3f5" d="M11.227 48.332a21.026 21.026 0 0 1 21.026-21.026 21.026 21.026 0 0 1 21.026 21.026H32.253z"></path>
  <path fill="#e8e8ec" d="M15.823 48.332a16.43 16.43 0 0 1 16.43-16.43 16.43 16.43 0 0 1 16.43 16.43h-16.43z"></path>
  <path fill="#dfdfe5" d="M20.95 48.332A11.303 11.303 0 0 1 32.253 37.03a11.303 11.303 0 0 1 11.303 11.303H32.253z"></path>
  <path fill="none" stroke="#12141a" stroke-linecap="round" stroke-linejoin="round" d="M12.166 47.795h39.817m2.71 0h2.064m-52.53 0h5.705"></path>
  <path fill="none" stroke="#e6e6e6" stroke-linecap="round" stroke-linejoin="round" d="M21.511 49.862h19.735m-17.173 2.023h5.263m2.467 0h7.06m-12.108 2.077h5.116"></path>
  <path fill="#fc0" fill-rule="evenodd" d="M865.282-102.806a.313.313 0 0 0-.308.318c0 .216-.092.315-.307.315-.423-.007-.423.63 0 .625.207 0 .307.057.307.301-.006.423.632.423.626 0 0-.222.103-.301.308-.301.423.006.423-.632 0-.626-.278 0-.308-.159-.308-.314a.313.313 0 0 0-.318-.318zm-8.492 12.107a.43.43 0 0 0-.422.436c0 .297-.127.432-.422.432-.58-.008-.58.866 0 .858.284 0 .422.078.422.414-.008.58.866.58.858 0 0-.305.142-.414.424-.414.58.009.58-.866 0-.858-.383 0-.424-.219-.424-.432a.43.43 0 0 0-.436-.436z" color="#000" font-family="sans-serif" font-weight="400" overflow="visible" style="line-height:normal;text-indent:0;text-align:start;text-decoration-line:none;text-transform:none;block-progression:tb" transform="translate(-844.106 118.087)"></path>
  <path fill="#12141a" fill-rule="evenodd" d="M859.082-83.722a.236.236 0 0 0-.231.239c0 .163-.07.237-.232.237-.319-.005-.319.476 0 .471.156 0 .232.043.232.227-.005.319.475.319.47 0 0-.167.079-.227.233-.227.319.005.319-.475 0-.47-.21 0-.232-.12-.232-.238a.236.236 0 0 0-.24-.24z" color="#000" font-family="sans-serif" font-weight="400" overflow="visible" style="line-height:normal;text-indent:0;text-align:start;text-decoration-line:none;text-transform:none;block-progression:tb" transform="translate(-844.106 118.087)"></path>
  <path fill="#ff8e00" fill-rule="evenodd" d="M856.54-102.005a.313.313 0 0 0-.307.317c0 .217-.092.315-.307.315-.423-.006-.423.631 0 .625.207 0 .307.057.307.302-.006.422.631.422.625 0 0-.222.104-.302.31-.302.422.006.422-.631 0-.625-.28 0-.31-.16-.31-.315a.313.313 0 0 0-.317-.317z" color="#000" font-family="sans-serif" font-weight="400" overflow="visible" style="line-height:normal;text-indent:0;text-align:start;text-decoration-line:none;text-transform:none;block-progression:tb" transform="translate(-844.106 118.087)"></path>
  <path fill="#12141a" fill-rule="evenodd" d="M884.992-106.997a.236.236 0 0 0-.231.24c0 .163-.07.237-.232.237-.319-.005-.319.476 0 .471.156 0 .232.043.232.227-.005.319.475.319.47 0 0-.167.079-.227.233-.227.319.005.319-.476 0-.471-.21 0-.232-.12-.232-.237a.236.236 0 0 0-.24-.24z" color="#000" font-family="sans-serif" font-weight="400" overflow="visible" style="line-height:normal;text-indent:0;text-align:start;text-decoration-line:none;text-transform:none;block-progression:tb" transform="translate(-844.106 118.087)"></path>
  <path fill="#ff8e00" fill-rule="evenodd" d="M878.603-103.63a.313.313 0 0 0-.307.317c0 .217-.093.315-.308.315-.423-.006-.423.631 0 .625.207 0 .308.057.308.302-.006.422.63.422.625 0 0-.222.104-.302.309-.302.422.006.422-.631 0-.625-.279 0-.31-.16-.31-.315a.313.313 0 0 0-.317-.317z" color="#000" font-family="sans-serif" font-weight="400" overflow="visible" style="line-height:normal;text-indent:0;text-align:start;text-decoration-line:none;text-transform:none;block-progression:tb" transform="translate(-844.106 118.087)"></path>
  <path fill="#12141a" fill-rule="evenodd" d="M889.343-91.349a.236.236 0 0 0-.232.24c0 .163-.07.237-.232.237-.319-.005-.319.475 0 .47.156 0 .232.044.232.228-.005.319.475.319.47 0 0-.167.079-.227.234-.227.318.005.318-.476 0-.471-.21 0-.233-.12-.233-.237a.236.236 0 0 0-.24-.24z" color="#000" font-family="sans-serif" font-weight="400" overflow="visible" style="line-height:normal;text-indent:0;text-align:start;text-decoration-line:none;text-transform:none;block-progression:tb" transform="translate(-844.106 118.087)"></path>
  <path fill="#ff8e00" fill-rule="evenodd" d="M895.738-83.561a.43.43 0 0 0-.422.435c0 .298-.127.433-.422.433-.58-.008-.58.866 0 .857.284 0 .422.08.422.414-.008.58.866.58.858 0 0-.304.143-.414.424-.414.58.01.58-.866 0-.857-.382 0-.424-.22-.424-.433a.43.43 0 0 0-.436-.435z" color="#000" font-family="sans-serif" font-weight="400" overflow="visible" style="line-height:normal;text-indent:0;text-align:start;text-decoration-line:none;text-transform:none;block-progression:tb" transform="translate(-844.106 118.087)"></path>
  <path fill="#fc0" fill-rule="evenodd" d="M891.666-101.38a.313.313 0 0 0-.308.317c0 .217-.092.315-.307.315-.423-.006-.423.631 0 .625.207 0 .307.057.307.302-.006.422.631.422.625 0 0-.222.104-.302.31-.302.422.006.422-.631 0-.625-.28 0-.31-.16-.31-.315a.313.313 0 0 0-.317-.317z" color="#000" font-family="sans-serif" font-weight="400" overflow="visible" style="line-height:normal;text-indent:0;text-align:start;text-decoration-line:none;text-transform:none;block-progression:tb" transform="translate(-844.106 118.087)"></path>
  <path fill="#12141a" fill-rule="evenodd" d="M870.855-108.548a.242.242 0 0 0-.238.245c0 .167-.071.243-.237.243-.327-.005-.327.488 0 .484.16 0 .237.044.237.233-.004.326.488.326.483 0 0-.172.08-.233.24-.233.326.005.326-.488 0-.484-.216 0-.24-.123-.24-.243a.242.242 0 0 0-.245-.245z" color="#000" font-family="sans-serif" font-weight="400" overflow="visible" style="line-height:normal;text-indent:0;text-align:start;text-decoration-line:none;text-transform:none;block-progression:tb" transform="translate(-844.106 118.087)"></path>
  <path fill="#fc0" d="M18.192 31.654c2.878-1.57 6.494-.5 8.068 2.384 1.574 2.885.5 6.473-2.379 8.044-2.877 1.57-6.476.53-8.05-2.355a5.937 5.937 0 0 1-.433-4.709 5.899 5.899 0 0 1 2.794-3.365z"></path>
  <path fill="#fff" d="M1282.419 1201.941c-3.258-3.257-8.545-3.246-11.812.02-3.268 3.269-3.243 8.514.017 11.774.113.113.234.212.351.316-2.933-3.275-2.859-8.269.297-11.424 3.155-3.155 8.186-3.263 11.461-.337-.103-.117-.202-.237-.314-.35z" color="#000" font-family="sans-serif" font-weight="400" overflow="visible" style="line-height:normal;text-indent:0;text-align:start;text-decoration-line:none;text-transform:none;block-progression:tb" transform="matrix(.58356 -.3184 .31836 .58356 -1108.412 -261.555)"></path>
  <path fill="#ff8e00" d="M1282.476 1201.998c3.257 3.257 3.246 8.545-.02 11.812-3.269 3.268-8.514 3.243-11.774-.017-.113-.113-.212-.234-.316-.351 3.275 2.933 8.008 1.674 10.702-1.02 2.694-2.693 3.985-7.462 1.059-10.738.118.103.236.203.349.315z" color="#000" font-family="sans-serif" font-weight="400" overflow="visible" style="line-height:normal;text-indent:0;text-align:start;text-decoration-line:none;text-transform:none;block-progression:tb" transform="matrix(.58356 -.3184 .31836 .58356 -1108.412 -261.555)"></path>
  <path fill="none" stroke="#12141a" stroke-linecap="round" stroke-linejoin="round" stroke-miterlimit="10" stroke-width="1.504" d="M1272.921 1199.676a8.869 8.869 0 0 1 3.578-.749c4.932 0 8.936 4.019 8.936 8.961 0 1.158-.22 2.261-.619 3.273m-1.06 1.936a8.943 8.943 0 0 1-2.105 2.077 8.927 8.927 0 0 1-5.152 1.623c-4.93 0-8.934-3.965-8.934-8.909 0-1.767.512-3.416 1.395-4.805m1.426-1.725c.226-.214.464-.416.713-.605" transform="matrix(.58356 -.3184 .31836 .58356 -1108.412 -261.555)"></path>
  <path fill="#fc0" stroke="#12141a" stroke-linecap="round" stroke-linejoin="round" stroke-miterlimit="34.178" stroke-width="1.504" d="M1278.285 1205.28c-.428-.274-1-.418-1.571-.418-1.214 0-2.214.653-2.214 1.49 0 .838.83 1.533 2.044 1.533s1.956.653 1.956 1.49c0 .838-1 1.487-2.214 1.487-.574 0-1.143-.138-1.572-.417m1.787-5.674v-1.901m0 10.073v-2.007" transform="matrix(.58356 -.3184 .31836 .58356 -1108.412 -261.555)"></path>
  <path fill="#fc0" d="M44.705 31.797c2.8 1.707 3.68 5.374 1.97 8.178-1.712 2.806-5.358 3.67-8.157 1.963-2.798-1.707-3.697-5.343-1.986-8.149a5.937 5.937 0 0 1 3.862-2.73 5.899 5.899 0 0 1 4.311.737z"></path>
  <path fill="#fff" d="M1272.34 1200.67c-3.989 2.303-5.347 7.413-3.037 11.415 2.312 4.003 7.384 5.337 11.377 3.031.138-.08.265-.17.396-.257-3.923 1.985-8.726.621-10.958-3.244-2.23-3.864-1.034-8.752 2.64-11.158-.14.07-.28.134-.418.213z" color="#000" font-family="sans-serif" font-weight="400" overflow="visible" style="line-height:normal;text-indent:0;text-align:start;text-decoration-line:none;text-transform:none;block-progression:tb" transform="matrix(.56753 .34618 -.3462 .56749 -264.678 -1090.481)"></path>
  <path fill="#ff8e00" d="M1272.41 1200.63c3.99-2.303 9.093-.924 11.404 3.077 2.311 4.003.93 9.063-3.063 11.369-.138.08-.28.143-.421.214 3.68-2.405 3.69-7.302 1.785-10.602-1.905-3.3-6.177-5.781-10.099-3.802.13-.088.257-.176.395-.256z" color="#000" font-family="sans-serif" font-weight="400" overflow="visible" style="line-height:normal;text-indent:0;text-align:start;text-decoration-line:none;text-transform:none;block-progression:tb" transform="matrix(.56753 .34618 -.3462 .56749 -264.678 -1090.481)"></path>
  <path fill="none" stroke="#12141a" stroke-linecap="round" stroke-linejoin="round" stroke-miterlimit="10" stroke-width="1.504" d="M1272.921 1199.676a8.869 8.869 0 0 1 3.578-.749c4.932 0 8.936 4.019 8.936 8.961 0 1.158-.22 2.261-.619 3.273m-1.06 1.936a8.943 8.943 0 0 1-2.105 2.077 8.927 8.927 0 0 1-5.152 1.623c-4.93 0-8.934-3.965-8.934-8.909 0-1.767.512-3.416 1.395-4.805m1.426-1.725c.226-.214.464-.416.713-.605" transform="matrix(.56753 .34618 -.3462 .56749 -264.678 -1090.481)"></path>
  <path fill="#fc0" stroke="#12141a" stroke-linecap="round" stroke-linejoin="round" stroke-miterlimit="34.178" stroke-width="1.504" d="M1278.285 1205.28c-.428-.274-1-.418-1.571-.418-1.214 0-2.214.653-2.214 1.49 0 .838.83 1.533 2.044 1.533s1.956.653 1.956 1.49c0 .838-1 1.487-2.214 1.487-.574 0-1.143-.138-1.572-.417m1.787-5.674v-1.901m0 10.073v-2.007" transform="matrix(.56753 .34618 -.3462 .56749 -264.678 -1090.481)"></path>
  <path fill="#fc0" d="M31.167 22.37c4.932 0 8.936 4.019 8.936 8.961 0 4.944-4.004 8.91-8.936 8.91-4.93 0-8.934-3.966-8.934-8.91 0-1.767.512-3.416 1.395-4.805a9.014 9.014 0 0 1 2.139-2.33 8.873 8.873 0 0 1 5.4-1.826z"></path>
  <path fill="#fff" d="M1276.5 1199.523c-4.607 0-8.338 3.747-8.338 8.367 0 4.622 3.727 8.313 8.337 8.313.16 0 .315-.016.472-.025-4.39-.242-7.868-3.825-7.868-8.288 0-4.461 3.48-8.096 7.866-8.342-.156-.01-.31-.025-.47-.025z" color="#000" font-family="sans-serif" font-weight="400" overflow="visible" style="line-height:normal;text-indent:0;text-align:start;text-decoration-line:none;text-transform:none;block-progression:tb" transform="translate(-1245.332 -1176.557)"></path>
  <path fill="#ff8e00" d="M1276.58 1199.523c4.606 0 8.338 3.746 8.338 8.367 0 4.622-3.727 8.313-8.338 8.313-.16 0-.315-.016-.472-.025 4.39-.242 6.847-4.479 6.847-8.288 0-3.81-2.46-8.095-6.845-8.342.157-.011.311-.024.47-.024z" color="#000" font-family="sans-serif" font-weight="400" overflow="visible" style="line-height:normal;text-indent:0;text-align:start;text-decoration-line:none;text-transform:none;block-progression:tb" transform="translate(-1245.332 -1176.557)"></path>
  <path fill="none" stroke="#12141a" stroke-linecap="round" stroke-linejoin="round" stroke-miterlimit="10" d="M27.59 23.12a8.869 8.869 0 0 1 3.577-.75c4.932 0 8.936 4.019 8.936 8.961 0 1.158-.22 2.261-.619 3.273m-1.06 1.936a8.943 8.943 0 0 1-2.105 2.077 8.927 8.927 0 0 1-5.152 1.623c-4.93 0-8.934-3.965-8.934-8.909 0-1.767.512-3.416 1.395-4.805m1.426-1.725c.226-.214.464-.416.713-.605"></path>
  <path fill="#fc0" stroke="#12141a" stroke-linecap="round" stroke-linejoin="round" stroke-miterlimit="34.178" d="M32.953 28.724c-.428-.275-1-.419-1.571-.419-1.214 0-2.214.653-2.214 1.49 0 .838.83 1.533 2.044 1.533s1.956.653 1.956 1.49c0 .838-1 1.487-2.214 1.487-.574 0-1.143-.138-1.572-.417m1.787-5.674v-1.901m0 10.073v-2.007"></path>
</svg>
