<svg xmlns="http://www.w3.org/2000/svg" fill="none" viewBox="0 0 24 24" id="livestreaming">
  <path fill="#ffffff" fill-rule="evenodd" d="M12 10.5a1.5 1.5 0 1 0 0 3 1.5 1.5 0 0 0 0-3ZM8.5 12a3.5 3.5 0 1 1 7 0 3.5 3.5 0 0 1-7 0Z" clip-rule="evenodd" class="color000000 svgShape"></path>
  <path fill="#ffffff" fill-rule="evenodd" d="M8.828 8.697c-1.77 1.821-1.77 4.785 0 6.606l-1.434 1.394c-2.525-2.597-2.525-6.797 0-9.394l1.434 1.394Zm6.344 6.606c1.77-1.821 1.77-4.785 0-6.606l1.434-1.394c2.525 2.597 2.525 6.797 0 9.394l-1.434-1.394Z" clip-rule="evenodd" class="color000000 svgShape"></path>
  <path fill="#ffffff" fill-rule="evenodd" d="M6.696 6.708a7.475 7.475 0 0 0 0 10.584l-1.413 1.416a9.475 9.475 0 0 1 0-13.416l1.413 1.416Zm10.608 10.584a7.475 7.475 0 0 0 0-10.584l1.413-1.416a9.475 9.475 0 0 1 0 13.416l-1.413-1.416Z" clip-rule="evenodd" class="color000000 svgShape"></path>
</svg>
