<?xml version="1.0" encoding="UTF-8"?>
<svg version="1.1" xmlns="http://www.w3.org/2000/svg" width="800" height="397">
<path d="M0 0 C51.48 0 102.96 0 156 0 C156 20.79 156 41.58 156 63 C104.52 63 53.04 63 0 63 C0 42.21 0 21.42 0 0 Z " fill="#FFFFFF" transform="translate(17,261)"/>
<path d="M0 0 C10.23 0 20.46 0 31 0 C38.85197368 11.21710526 38.85197368 11.21710526 42.4375 16.625 C43.28381046 17.89846655 44.13016831 19.1719016 44.9765625 20.4453125 C45.44481445 21.15075195 45.91306641 21.85619141 46.39550781 22.58300781 C49.69781557 27.55757367 53.00452816 32.52919941 56.3125 37.5 C56.9943335 38.52689941 57.67616699 39.55379883 58.37866211 40.61181641 C61.18198514 44.82387048 63.9842814 49.01598641 66.98046875 53.09375 C69 56 69 56 69 58 C69.66 58 70.32 58 71 58 C71 38.86 71 19.72 71 0 C79.58 0 88.16 0 97 0 C97 31.35 97 62.7 97 95 C87.43 95 77.86 95 68 95 C64.9951829 91.24397863 62.21628711 87.48526776 59.54296875 83.50390625 C59.12261856 82.88169693 58.70226837 82.25948761 58.2691803 81.61842346 C57.37103439 80.28849587 56.47383708 78.95792725 55.57751465 77.62677002 C53.70409689 74.8446122 51.8259318 72.06567158 49.9480896 69.28649902 C49.00059818 67.8840774 48.05335304 66.48148935 47.10635376 65.07873535 C42.83467554 58.75141008 38.54770901 52.43467511 34.25 46.125 C33.62504639 45.20533447 33.00009277 44.28566895 32.35620117 43.33813477 C31.50699097 42.09181274 31.50699097 42.09181274 30.640625 40.8203125 C30.15110352 40.10117676 29.66158203 39.38204102 29.15722656 38.64111328 C28.10082469 37.04402784 28.10082469 37.04402784 27 36 C26.67 55.47 26.34 74.94 26 95 C17.42 95 8.84 95 0 95 C0 63.65 0 32.3 0 0 Z " fill="#F79920" transform="translate(385,7)"/>
<path d="M0 0 C9.631875 -0.0825 19.26375 -0.165 29.1875 -0.25 C33.70860474 -0.30462402 33.70860474 -0.30462402 38.32104492 -0.36035156 C40.74917899 -0.37204999 43.17732099 -0.38223906 45.60546875 -0.390625 C46.83446899 -0.41108887 48.06346924 -0.43155273 49.32971191 -0.45263672 C62.6793522 -0.45794104 74.37392665 2.7824663 84.1875 12.0703125 C95.26777825 23.76163551 96.59838018 37.10846912 96.30859375 52.55859375 C95.81376703 64.49808486 91.55921537 74.1291477 83.2734375 82.80859375 C70.65888699 94.35753154 53.55149894 95.18020986 37.3046875 95.09765625 C36.35150635 95.09664917 35.3983252 95.09564209 34.41625977 95.09460449 C30.90249403 95.0894269 27.38874563 95.07546627 23.875 95.0625 C15.99625 95.041875 8.1175 95.02125 0 95 C0 63.65 0 32.3 0 0 Z M26 22 C26 38.5 26 55 26 72 C30.125 72.061875 34.25 72.12375 38.5 72.1875 C40.42682617 72.22846802 40.42682617 72.22846802 42.39257812 72.27026367 C50.32747117 72.3276645 55.90307275 71.51402354 62.75 67.3125 C69.01064191 60.87795137 70.26827878 53.22795759 70.15234375 44.55859375 C69.68381685 36.68974445 66.88800052 30.36059453 61 25 C53.78843228 21.3516951 46.95041217 21.65006089 39 21.8125 C32.565 21.9053125 32.565 21.9053125 26 22 Z " fill="#F79920" transform="translate(490,7)"/>
<path d="M0 0 C10.51875 -0.0825 21.0375 -0.165 31.875 -0.25 C35.17741699 -0.28641602 38.47983398 -0.32283203 41.88232422 -0.36035156 C44.52310538 -0.37204273 47.16389379 -0.38223354 49.8046875 -0.390625 C50.47766876 -0.40107849 51.15065002 -0.41153198 51.84402466 -0.42230225 C63.98669129 -0.60123354 74.03393701 1.32254419 83 10 C90.90023435 19.46272514 91.85615045 28.98627593 91 41 C89.68319843 48.92475128 85.05178602 55.79559981 78.77734375 60.7578125 C78.19082031 61.16773438 77.60429687 61.57765625 77 62 C78.43358157 65.84192829 80.21522422 69.29831592 82.2578125 72.8515625 C83.19560547 74.49898437 83.19560547 74.49898437 84.15234375 76.1796875 C85.14288598 77.90970384 86.13346789 79.6397024 87.12841797 81.3671875 C88.09380137 83.04628032 89.05093125 84.73010999 90.0078125 86.4140625 C90.58160645 87.4138916 91.15540039 88.4137207 91.74658203 89.44384766 C93 92 93 92 93 95 C84.75 95 76.5 95 68 95 C60.23214286 81.47321429 60.23214286 81.47321429 56.5 74.75 C56.0153125 73.87859375 55.530625 73.0071875 55.03125 72.109375 C54 70 54 70 54 68 C44.76 68 35.52 68 26 68 C26 76.91 26 85.82 26 95 C17.42 95 8.84 95 0 95 C0 63.65 0 32.3 0 0 Z M26 22 C26 30.58 26 39.16 26 48 C30.104375 48.061875 34.20875 48.12375 38.4375 48.1875 C40.35067017 48.22846802 40.35067017 48.22846802 42.30249023 48.27026367 C49.63087925 48.32340521 57.07032015 48.19286488 63 43.375 C65.08525719 38.42251418 65.778362 33.25544971 63.9375 28.125 C61.60667341 24.36560227 60.07032208 23.61922444 56 22 C52.52428353 21.59098115 52.52428353 21.59098115 48.8515625 21.70703125 C48.19417084 21.71127609 47.53677917 21.71552094 46.85946655 21.71989441 C44.78087609 21.73655023 42.70329226 21.7741738 40.625 21.8125 C39.20704536 21.82756395 37.78907536 21.84124935 36.37109375 21.85351562 C32.9133724 21.88384651 29.45779909 21.94258267 26 22 Z " fill="#F79920" transform="translate(196,7)"/>
<path d="M0 0 C2.62102886 2.09018757 4.95028224 4.19708595 7.16015625 6.72265625 C7.63839844 7.19832031 8.11664062 7.67398438 8.609375 8.1640625 C17.80741277 17.77913977 20.63979582 31.4859153 20.4140625 44.3828125 C19.38064939 57.97616962 14.04673201 70.29824277 4.09375 79.66796875 C-6.54368279 88.45955005 -18.53363574 92.12132723 -32.15234375 92.03515625 C-33.08296631 92.0295166 -34.01358887 92.02387695 -34.97241211 92.01806641 C-48.44053144 91.77994298 -62.09262418 87.46987582 -71.83984375 77.72265625 C-71.83984375 77.06265625 -71.83984375 76.40265625 -71.83984375 75.72265625 C-72.49984375 75.72265625 -73.15984375 75.72265625 -73.83984375 75.72265625 C-83.00447866 64.25557611 -86.84191135 50.2340797 -85.83984375 35.72265625 C-83.85363819 22.02120437 -78.68035275 10.56021869 -67.83984375 1.72265625 C-48.65015018 -12.36238977 -19.70250461 -13.99680192 0 0 Z M-53.83984375 22.72265625 C-59.03424478 31.24080585 -59.9447538 39.92902495 -58.83984375 49.72265625 C-56.63164227 57.49592157 -51.97502598 62.79938152 -45.03515625 66.75 C-38.17042866 69.84055163 -29.72803782 69.92245791 -22.58984375 67.66015625 C-16.05614233 64.74721437 -10.39466512 59.68711084 -7.52734375 53.08203125 C-4.54264697 42.83909458 -5.67997267 33.80833388 -10.52734375 24.47265625 C-15.90225277 18.08087255 -21.73941603 14.38327786 -30.1484375 13.47265625 C-39.2824765 13.01666678 -47.51318743 16.09473058 -53.83984375 22.72265625 Z " fill="#F79920" transform="translate(560.83984375,124.27734375)"/>
<path d="M0 0 C27.39 0 54.78 0 83 0 C83 6.93 83 13.86 83 21 C64.52 21 46.04 21 27 21 C27 26.61 27 32.22 27 38 C44.82 38 62.64 38 81 38 C81 43.94 81 49.88 81 56 C63.18 56 45.36 56 27 56 C27 61.61 27 67.22 27 73 C45.48 73 63.96 73 83 73 C83 80.26 83 87.52 83 95 C55.61 95 28.22 95 0 95 C0 63.65 0 32.3 0 0 Z " fill="#F79920" transform="translate(295,7)"/>
<path d="M0 0 C27.06 0 54.12 0 82 0 C82 7.26 82 14.52 82 22 C63.52 22 45.04 22 26 22 C26 27.28 26 32.56 26 38 C43.82 38 61.64 38 80 38 C80 44.27 80 50.54 80 57 C62.18 57 44.36 57 26 57 C26 62.61 26 68.22 26 74 C44.48 74 62.96 74 82 74 C82 80.93 82 87.86 82 95 C54.94 95 27.88 95 0 95 C0 63.65 0 32.3 0 0 Z " fill="#F79920" transform="translate(196,118)"/>
<path d="M0 0 C8.54049225 7.68320799 9.94685756 14.41543318 11 26 C3.08 26 -4.84 26 -13 26 C-16 20 -16 20 -16 18 C-24.08256014 13.47376632 -33.56790749 12.4917181 -42.58203125 14.60546875 C-46.52546344 15.89336685 -46.52546344 15.89336685 -49 19 C-49.51601836 23.07176919 -49.51601836 23.07176919 -49 27 C-45.1486465 29.82225963 -41.63714552 30.65711812 -36.96875 31.4296875 C-35.58591907 31.6704671 -34.20310721 31.91135621 -32.8203125 32.15234375 C-30.67350735 32.51371127 -28.52605913 32.87071277 -26.37792969 33.22412109 C-12.21773888 35.57977233 1.23365938 38.38711686 10.67578125 50.07421875 C12.65524609 54.44772662 12.55255932 58.56416707 12.5625 63.3125 C12.59923828 64.22451172 12.63597656 65.13652344 12.67382812 66.07617188 C12.71886134 73.05632066 10.86007427 77.02578219 6 82 C-5.07225783 92.14827658 -18.23618815 93.18973273 -32.625 93.25 C-33.83285156 93.270625 -35.04070313 93.29125 -36.28515625 93.3125 C-49.19032521 93.36806585 -60.99580691 91.20885043 -70.84765625 82.3359375 C-77.53100216 75.14354068 -78 68.99677511 -78 59 C-70.41 59 -62.82 59 -55 59 C-53.68 61.64 -52.36 64.28 -51 67 C-44.098624 72.67089811 -33.41172686 71.73987964 -25 71 C-20.54703924 70.04625443 -16.97428026 68.55334367 -14 65 C-13.60949548 61.87596386 -13.38579042 59.90515096 -15.1875 57.25 C-19.36555518 54.36858263 -23.95476799 53.51567402 -28.8828125 52.6328125 C-30.22920916 52.38434475 -31.57556192 52.13563898 -32.921875 51.88671875 C-35.01403032 51.50601668 -37.1066349 51.12827115 -39.20019531 50.75537109 C-63.73708107 46.35922758 -63.73708107 46.35922758 -72 37 C-76.27585909 29.96552214 -77.02078975 22.68458145 -75.57421875 14.62890625 C-73.46890883 7.17636746 -68.98470495 2.12373237 -62.75 -2.3125 C-45.11134703 -11.29073327 -16.52696471 -11.42131311 0 0 Z " fill="#F79920" transform="translate(765,123)"/>
<path d="M0 0 C8.91 0 17.82 0 27 0 C27.01458252 1.87703613 27.02916504 3.75407227 27.04418945 5.68798828 C27.0959196 11.90271124 27.16122662 18.11717665 27.23571491 24.33166695 C27.2803658 28.09804249 27.3196332 31.86431118 27.34643555 35.63085938 C27.37252177 39.2685524 27.41296081 42.90583311 27.46318626 46.54327011 C27.47981923 47.92821991 27.49135572 49.31324098 27.49761391 50.69827652 C27.50729302 52.64418174 27.53708156 54.589955 27.56762695 56.53564453 C27.57873001 57.64150909 27.58983307 58.74737366 27.60127258 59.88674927 C28.205378 64.60358473 29.90167088 67.90167088 33.25 71.25 C39.26939878 75.0805265 45.58418391 75.93648112 52.5234375 74.46484375 C59.24620203 72.73312925 59.24620203 72.73312925 64 68 C67.16900183 60.20556029 67.4680165 52.65975165 67.51171875 44.3359375 C67.53864555 42.4261058 67.53864555 42.4261058 67.56611633 40.47769165 C67.61082215 37.12731562 67.643273 33.77729546 67.66955566 30.42675781 C67.69957791 26.99401036 67.74587642 23.56148271 67.79101562 20.12890625 C67.87807505 13.41925657 67.93838075 6.7101236 68 0 C76.58 0 85.16 0 94 0 C94.09092615 8.12005472 94.16407214 16.23970341 94.20724869 24.36013317 C94.22798734 28.13212927 94.25604797 31.90375442 94.30175781 35.67553711 C94.34571327 39.32604345 94.3692398 42.97619653 94.37950897 46.6269474 C94.38681247 48.00901146 94.40107 49.39105958 94.42292023 50.7729702 C94.60777138 62.96593519 93.07461842 76.59375885 84.25 85.83203125 C73.69754796 95.62190375 61.13708194 98.53853951 47 98.375 C45.99710938 98.38660156 44.99421875 98.39820313 43.9609375 98.41015625 C32.63603207 98.36626127 20.41987559 95.69916417 11.73828125 87.9921875 C0.91645799 76.51025303 -0.3154453 63.52600049 -0.1953125 48.33984375 C-0.19157474 46.9402334 -0.18873138 45.54062039 -0.18673706 44.14100647 C-0.17916061 40.48646613 -0.15956486 36.83208892 -0.1373291 33.1776123 C-0.11674041 29.43679042 -0.10759752 25.69594096 -0.09765625 21.95507812 C-0.07737777 14.63657546 -0.03821681 7.31851867 0 0 Z " fill="#F79920" transform="translate(587,118)"/>
<path d="M0 0 C28.38 0 56.76 0 86 0 C86 7.26 86 14.52 86 22 C82.04 25.465 82.04 25.465 78 29 C76.65857241 30.2190165 75.32298558 31.44458674 74 32.68359375 C73.01676758 33.60398437 73.01676758 33.60398437 72.01367188 34.54296875 C71.34916016 35.16816406 70.68464844 35.79335937 70 36.4375 C69.29939453 37.09492188 68.59878906 37.75234375 67.87695312 38.4296875 C63.73971155 42.32401555 59.68232336 46.27980551 55.69921875 50.33203125 C53.96429303 52.03505029 52.16319857 53.61154431 50.3125 55.1875 C44.28575277 60.51549392 38.68811047 66.31188953 33 72 C50.16 72.33 67.32 72.66 85 73 C85 80.26 85 87.52 85 95 C56.62 95 28.24 95 -1 95 C-1 87.74 -1 80.48 -1 73 C1.64 70.69 4.28 68.38 7 66 C9.41429251 63.61034313 11.76711993 61.17507868 14.1171875 58.72265625 C16 57 16 57 18 57 C18.33 56.01 18.66 55.02 19 54 C20.35546875 52.66796875 20.35546875 52.66796875 22.1875 51.1875 C26.35320452 47.66729204 30.17253302 43.87785517 34 40 C38.33405952 35.6136051 42.67608128 31.34556525 47.44921875 27.4296875 C49.40176625 25.71638441 49.40176625 25.71638441 52 22 C34.84 22 17.68 22 0 22 C0 14.74 0 7.48 0 0 Z " fill="#F79920" transform="translate(285,118)"/>
<path d="M0 0 C5.41049648 4.78716739 8.33602883 10.26644697 9.12890625 17.40234375 C9.15242504 18.74719083 9.15326537 20.0926028 9.1328125 21.4375 C9.12451416 22.14189209 9.11621582 22.84628418 9.10766602 23.57202148 C8.92617376 29.14790275 8.12411583 33.10489755 4.6953125 37.5 C4.29054688 38.07621094 3.88578125 38.65242188 3.46875 39.24609375 C-2.99487101 47.00589544 -14.1678298 50.42034436 -23.27734375 54.12890625 C-34.84075811 58.83906383 -34.84075811 58.83906383 -42.3046875 68.5 C-25.4746875 68.5 -8.6446875 68.5 8.6953125 68.5 C8.6953125 75.43 8.6953125 82.36 8.6953125 89.5 C-18.3646875 89.5 -45.4246875 89.5 -73.3046875 89.5 C-73.3046875 62.05555556 -73.3046875 62.05555556 -63.3046875 51.5 C-53.90032597 43.00265811 -41.48237932 38.37666927 -29.77734375 33.95703125 C-23.15808107 31.24070384 -23.15808107 31.24070384 -17.8046875 26.6875 C-17.02935149 23.29540496 -17.39313002 20.84237744 -18.3046875 17.5 C-22.32443433 14.24663481 -25.73752764 14.09459704 -30.8046875 14.125 C-32.73828125 14.11339844 -32.73828125 14.11339844 -34.7109375 14.1015625 C-38.60892491 14.53373067 -40.38255269 14.89683061 -43.3046875 17.5 C-44.2946875 20.14 -45.2846875 22.78 -46.3046875 25.5 C-54.8846875 25.5 -63.4646875 25.5 -72.3046875 25.5 C-70.97218663 13.9920379 -68.90099829 5.542239 -59.68359375 -1.99609375 C-43.41468515 -12.28103597 -15.50393825 -11.79006711 0 0 Z " fill="#F79920" transform="translate(267.3046875,235.5)"/>
<path d="M0 0 C21.45 0 42.9 0 65 0 C65 6.6 65 13.2 65 20 C50.15 20 35.3 20 20 20 C19.34 24.95 18.68 29.9 18 35 C19.19625 34.525625 20.3925 34.05125 21.625 33.5625 C32.7817012 29.87868356 45.35257246 29.8912938 56.1875 34.625 C63.04862831 38.44299953 68.46906989 44.1758246 71.31640625 51.515625 C74.1325947 61.75045844 73.46009769 70.95210414 68.3125 80.1875 C62.41246102 89.32760835 54.26791806 94.08807599 43.63720703 96.54638672 C29.42964085 98.99016176 12.52627718 98.56860322 0.4375 90.0625 C-8.13707386 82.85697575 -9.8793874 76.20612599 -11 65 C-3.08 65 4.84 65 13 65 C13.99 66.98 14.98 68.96 16 71 C20.74100321 75.43513204 26.02420879 75.28073169 32.23828125 75.22265625 C36.81260584 74.85386346 40.13018606 73.41847954 43.8125 70.625 C46.41506956 67.06358903 47.19686612 64.28732497 46.6875 59.9375 C46.460625 58.638125 46.23375 57.33875 46 56 C45.9175 55.21625 45.835 54.4325 45.75 53.625 C45.07878709 51.72033771 45.07878709 51.72033771 42.5625 50.8125 C41.716875 50.544375 40.87125 50.27625 40 50 C39.01 49.505 39.01 49.505 38 49 C29.64432481 48.33110737 23.106252 48.35360446 16 53 C15.34 53.66 14.68 54.32 14 55 C11.66162109 55.22705078 11.66162109 55.22705078 8.7734375 55.1953125 C7.2265625 55.18564453 7.2265625 55.18564453 5.6484375 55.17578125 C4.56820313 55.15902344 3.48796875 55.14226562 2.375 55.125 C1.28703125 55.11597656 0.1990625 55.10695313 -0.921875 55.09765625 C-3.61480152 55.07403409 -6.30729255 55.04109556 -9 55 C-8.46060363 44.16804031 -6.46139055 33.6416704 -4.5 23 C-4.17529152 21.20972417 -3.8510693 19.41936008 -3.52734375 17.62890625 C-3.21658109 15.91919166 -2.90539854 14.20955333 -2.59375 12.5 C-2.44893188 11.7052124 -2.30411377 10.9104248 -2.15490723 10.09155273 C-1.52805248 6.69358296 -0.83847081 3.35388323 0 0 Z " fill="#F79920" transform="translate(293,230)"/>
<path d="M0 0 C8.91 0 17.82 0 27 0 C32.94698908 14.2727738 32.94698908 14.2727738 35.4375 20.6875 C35.73406494 21.45022217 36.03062988 22.21294434 36.33618164 22.9987793 C38.55435581 28.74777946 40.63028009 34.53798689 42.64672852 40.36035156 C45.09178119 47.37510089 47.76219863 54.30122845 50.46069336 61.22192383 C50.79077393 62.0755249 51.12085449 62.92912598 51.4609375 63.80859375 C51.75790527 64.56970459 52.05487305 65.33081543 52.36083984 66.11499023 C53 68 53 68 53 70 C53.99 70 54.98 70 56 70 C56.19879761 68.90546509 56.19879761 68.90546509 56.40161133 67.78881836 C56.95584103 65.20580494 57.67448994 62.85912193 58.57421875 60.37890625 C58.90550781 59.46117432 59.23679687 58.54344238 59.578125 57.59790039 C59.94421875 56.59621826 60.3103125 55.59453613 60.6875 54.5625 C61.07035156 53.50732178 61.45320313 52.45214355 61.84765625 51.36499023 C63.22608811 47.57457018 64.61211238 43.78696432 66 40 C66.28603088 39.21898926 66.57206177 38.43797852 66.86676025 37.63330078 C69.07366584 31.6081638 71.28545211 25.58483188 73.5 19.5625 C73.97208389 18.27776291 73.97208389 18.27776291 74.45370483 16.96707153 C75.35322378 14.52052433 76.25443843 12.07460917 77.15625 9.62890625 C77.42879105 8.88729248 77.70133209 8.14567871 77.98213196 7.3815918 C79.88493159 2.23013683 79.88493159 2.23013683 81 0 C89.91 0 98.82 0 108 0 C107.0826605 4.58669748 105.72944291 8.6976066 104.078125 13.04296875 C103.7817363 13.83190521 103.4853476 14.62084167 103.17997742 15.4336853 C102.20718357 18.01976534 101.22874566 20.60366726 100.25 23.1875 C99.57211656 24.98485776 98.89446609 26.78230341 98.21704102 28.57983398 C96.15133175 34.0557455 94.07695762 39.52834639 92 45 C91.68367615 45.83366089 91.36735229 46.66732178 91.04144287 47.52624512 C89.0118271 52.8735869 86.97692699 58.2188928 84.9375 63.5625 C84.67868042 64.24122162 84.41986084 64.91994324 84.15319824 65.61923218 C81.37554978 72.89718182 78.56268133 80.16080279 75.69140625 87.40234375 C75.43648911 88.04998184 75.18157196 88.69761993 74.91893005 89.36488342 C73.11676222 93.88323778 73.11676222 93.88323778 72 95 C69.3337397 95.08855161 66.69352886 95.11524673 64.02734375 95.09765625 C63.22970108 95.0962413 62.43205841 95.09482635 61.61024475 95.09336853 C59.05262565 95.08775316 56.49509282 95.07519812 53.9375 95.0625 C52.20768355 95.05748698 50.47786574 95.05292373 48.74804688 95.04882812 C44.49866447 95.03777875 40.24934688 95.02050386 36 95 C30.89589934 83.22761288 26.47157012 71.18699147 21.9375 59.1875 C20.24360896 54.71170032 18.5480788 50.23652397 16.8515625 45.76171875 C16.43528091 44.66354828 16.01899933 43.56537781 15.59010315 42.43392944 C13.11421766 35.91075495 10.6169526 29.39651239 8.0859375 22.89453125 C7.65556938 21.78853828 7.65556938 21.78853828 7.21650696 20.66020203 C5.9172204 17.32495977 4.61288121 13.99178281 3.30249023 10.66088867 C2.85848877 9.52498291 2.4144873 8.38907715 1.95703125 7.21875 C1.57522705 6.24873047 1.19342285 5.27871094 0.80004883 4.27929688 C0 2 0 2 0 0 Z " fill="#F79920" transform="translate(373,118)"/>
<path d="M0 0 C6.66199996 6.07044817 11.25488482 13.93567982 12.05358887 23.02786255 C12.34453548 29.64157383 12.21234247 36.25445603 12.09765625 42.87109375 C12.07755989 44.89256042 12.05931467 46.91404639 12.04296875 48.93554688 C11.99922332 53.85204485 11.93036883 58.76760326 11.84765625 63.68359375 C6.03103384 63.75818054 0.21469462 63.81240136 -5.60229492 63.84838867 C-7.57793024 63.86340331 -9.55353264 63.88382126 -11.52905273 63.90991211 C-14.3814307 63.94661947 -17.23336504 63.96339368 -20.0859375 63.9765625 C-20.95818466 63.99204636 -21.83043182 64.00753021 -22.72911072 64.02348328 C-33.55353091 64.02640254 -42.08757294 60.12727357 -50.09765625 52.9375 C-56.92000683 45.83457657 -60.39196904 37.44724731 -60.71484375 27.62109375 C-60.26886401 16.96452523 -56.68464974 8.29003661 -49.15234375 0.68359375 C-33.96546905 -11.79914319 -15.36645535 -12.25039482 0 0 Z " fill="#FFFFFF" transform="translate(161.15234375,184.31640625)"/>
<path d="M0 0 C8.04368304 7.77667281 11.90323597 16.72915861 12.2578125 27.8203125 C11.87267103 39.85213195 7.29570379 47.82739469 -1.3046875 56.0703125 C-13.12811417 65.12940303 -25.14898457 64.44220844 -39.3671875 64.1328125 C-41.38408679 64.10768636 -43.4010164 64.08488086 -45.41796875 64.06445312 C-50.31846771 64.00982776 -55.21748675 63.92379591 -60.1171875 63.8203125 C-60.2166975 57.73718945 -60.28895767 51.65454912 -60.33691406 45.57080078 C-60.35692375 43.50496152 -60.38414033 41.43917813 -60.41894531 39.37353516 C-60.46793466 36.38950747 -60.49026314 33.40623404 -60.5078125 30.421875 C-60.52845764 29.51104156 -60.54910278 28.60020813 -60.57037354 27.66177368 C-60.57379985 17.6801169 -56.92686347 9.11751724 -50.1171875 1.8203125 C-35.4782521 -11.54970884 -15.59451484 -12.56400184 0 0 Z " fill="#FFFFFF" transform="translate(77.1171875,184.1796875)"/>
<path d="M0 0 C5.95903843 -0.07456924 11.91780075 -0.12879953 17.87719727 -0.16479492 C19.90133399 -0.17981245 21.92543855 -0.20023261 23.94946289 -0.22631836 C26.87133761 -0.26301267 29.79277935 -0.27979708 32.71484375 -0.29296875 C33.60896469 -0.30845261 34.50308563 -0.32393646 35.42430115 -0.33988953 C46.62557398 -0.34284011 54.04712839 3.51508722 62.13671875 10.96875 C69.12190485 18.09596391 72.08435127 26.06339754 72.5 36 C72.03652981 47.09431774 68.01307028 56.28879195 60 64 C49.90761613 71.50698924 40.23840919 72.94880699 28 72 C17.81605189 69.74739161 9.87286095 63.10818046 4.2890625 54.50390625 C0.57250323 47.28477142 -0.42794133 41.62345536 -0.29296875 33.59375 C-0.28872391 32.6284436 -0.28447906 31.66313721 -0.28010559 30.6685791 C-0.26343097 27.6120917 -0.22579992 24.55628515 -0.1875 21.5 C-0.17243866 19.41667625 -0.1587528 17.33334207 -0.14648438 15.25 C-0.11356424 10.16640785 -0.06186016 5.08331901 0 0 Z " fill="#FFFFFF" transform="translate(17,7)"/>
<path d="M0 0 C2.02146667 0.02009636 4.04295264 0.03834158 6.06445312 0.0546875 C10.9809511 0.09843293 15.89650951 0.16728742 20.8125 0.25 C20.91214557 6.17239601 20.98433264 12.09429294 21.03222656 18.01733398 C21.05221393 20.02783724 21.07941326 22.03828333 21.11425781 24.04858398 C21.35297305 38.18544076 21.30117989 49.89372957 11.796875 61.24609375 C8.49530951 64.58015497 4.9162405 67.00374204 0.8125 69.25 C0.22210938 69.5903125 -0.36828125 69.930625 -0.9765625 70.28125 C-8.30669462 73.76871374 -18.36098881 73.32683118 -26.12890625 71.59375 C-36.89121206 67.68630877 -44.20909067 60.28216731 -49.21875 50.16796875 C-52.50251052 41.97377005 -52.60549588 32.13819803 -49.5625 23.875 C-45.25906768 14.68130368 -38.29690316 6.14278338 -28.8046875 2.0625 C-19.61300751 -1.13553927 -9.59428311 -0.16629777 0 0 Z " fill="#FFFFFF" transform="translate(152.1875,6.75)"/>
<path d="M0 0 C8.9815842 6.17715557 15.506286 14.34811758 18 25 C18.95196389 36.54719833 18.12618975 45.9543065 10.72265625 55.0859375 C2.8590176 63.82331377 -5.73379997 68.26194643 -17.5 69.3125 C-29.16527287 69.09198444 -38.32855576 63.82898436 -46.25 55.6875 C-52.84051802 45.56634732 -55.07572236 37.0987127 -54 25 C-51.59015824 15.26659036 -45.90004352 6.82827252 -37.44140625 1.33984375 C-24.90082401 -5.20721821 -12.99233136 -5.93024205 0 0 Z " fill="#FFFFFF" transform="translate(155,95)"/>
<path d="M0 0 C7.45539933 6.18705339 12.72877729 13.52749751 14.625 23.1875 C15.58641815 34.67723489 13.65447116 44.37600026 6.24609375 53.41015625 C-1.62006135 62.03449497 -10.27498962 65.78076306 -22 66.34765625 C-33.35204335 65.80895975 -42.08728931 61.02355457 -49.625 52.8125 C-57.30215685 43.37817373 -58.54086058 33.00660086 -57.375 21.1875 C-56.4853611 17.83637316 -55.20194077 15.12071979 -53.375 12.1875 C-52.776875 11.15625 -52.17875 10.125 -51.5625 9.0625 C-39.02956563 -7.4093566 -17.58936518 -12.52067407 0 0 Z " fill="#FFFFFF" transform="translate(74.375,97.8125)"/>
<path d="M0 0 C12.54 0 25.08 0 38 0 C38 11.22 38 22.44 38 34 C25.46 34 12.92 34 0 34 C0 22.78 0 11.56 0 0 Z " fill="#F79A22" transform="translate(482,356)"/>
<path d="M0 0 C12.54 0 25.08 0 38 0 C38 11.22 38 22.44 38 34 C25.46 34 12.92 34 0 34 C0 22.78 0 11.56 0 0 Z " fill="#F9323B" transform="translate(439,356)"/>
<path d="M0 0 C12.54 0 25.08 0 38 0 C38 11.22 38 22.44 38 34 C25.46 34 12.92 34 0 34 C0 22.78 0 11.56 0 0 Z " fill="#F77122" transform="translate(396,356)"/>
<path d="M0 0 C3.5 0.5625 3.5 0.5625 5.9375 2.4375 C8.15403218 6.87056436 8.2734987 10.69822981 7.5 15.5625 C5.9375 18.6875 5.9375 18.6875 3.5 20.5625 C0 21.125 0 21.125 -3.5 20.5625 C-6.3398297 18.4072721 -7.3771841 17.22715076 -8.03125 13.6875 C-8.0209375 12.65625 -8.010625 11.625 -8 10.5625 C-8.0103125 9.53125 -8.020625 8.5 -8.03125 7.4375 C-7.11946732 2.50314669 -4.83971824 0.77781186 0 0 Z " fill="#FEF3EA" transform="translate(492.5,361.4375)"/>
<path d="M0 0 C3.5 0.5625 3.5 0.5625 5.9375 2.4375 C8.15403218 6.87056436 8.2734987 10.69822981 7.5 15.5625 C5.9375 18.6875 5.9375 18.6875 3.5 20.5625 C0 21.125 0 21.125 -3.5 20.5625 C-6.3398297 18.4072721 -7.3771841 17.22715076 -8.03125 13.6875 C-8.0209375 12.65625 -8.010625 11.625 -8 10.5625 C-8.0103125 9.53125 -8.020625 8.5 -8.03125 7.4375 C-7.11946732 2.50314669 -4.83971824 0.77781186 0 0 Z " fill="#FEEDEE" transform="translate(449.5,361.4375)"/>
<path d="M0 0 C4.05296361 0.74442189 5.50819527 1.25692917 8.0625 4.5625 C8.77504555 8.67687591 8.77504555 12.44812409 8.0625 16.5625 C5.50819527 19.86807083 4.05296361 20.38057811 0 21.125 C-2.9375 20.5625 -2.9375 20.5625 -5.3125 18.6875 C-7.61160686 14.26614065 -7.72263667 10.44957519 -6.9375 5.5625 C-5.0068559 1.84972289 -4.11739656 0.78843764 0 0 Z " fill="#FEF1EC" transform="translate(405.9375,361.4375)"/>
<path d="M0 0 C1.65 0 3.3 0 5 0 C6.32 2.31 7.64 4.62 9 7 C11.77000825 3.67913229 11.77000825 3.67913229 14 0 C15.32 0 16.64 0 18 0 C18 5.94 18 11.88 18 18 C17.01 18 16.02 18 15 18 C14.67 14.7 14.34 11.4 14 8 C12.02 10.97 12.02 10.97 10 14 C6.125 10.25 6.125 10.25 5 8 C4.67 11.3 4.34 14.6 4 18 C2.68 18 1.36 18 0 18 C0 12.06 0 6.12 0 0 Z " fill="#FFFFFF" transform="translate(411,277)"/>
<path d="M0 0 C1.65 0 3.3 0 5 0 C6.32 2.31 7.64 4.62 9 7 C11.77000825 3.67913229 11.77000825 3.67913229 14 0 C15.32 0 16.64 0 18 0 C18 5.94 18 11.88 18 18 C17.01 18 16.02 18 15 18 C14.67 14.7 14.34 11.4 14 8 C12.02 10.97 12.02 10.97 10 14 C6.125 10.25 6.125 10.25 5 8 C4.67 11.3 4.34 14.6 4 18 C2.68 18 1.36 18 0 18 C0 12.06 0 6.12 0 0 Z " fill="#FFFFFF" transform="translate(445,249)"/>
<path d="M0 0 C5 1 5 1 6.80078125 3.06640625 C7.29964844 3.89011719 7.79851562 4.71382813 8.3125 5.5625 C8.82425781 6.38878906 9.33601562 7.21507812 9.86328125 8.06640625 C10.23839844 8.70449219 10.61351562 9.34257812 11 10 C11.33 6.7 11.66 3.4 12 0 C12.99 0 13.98 0 15 0 C15 5.94 15 11.88 15 18 C10.40804906 16.85201226 10.12179476 16.26471427 7.75 12.4375 C7.22921875 11.61121094 6.7084375 10.78492188 6.171875 9.93359375 C5.78515625 9.29550781 5.3984375 8.65742188 5 8 C4.67 11.3 4.34 14.6 4 18 C2.68 18 1.36 18 0 18 C0 12.06 0 6.12 0 0 Z " fill="#FFFFFF" transform="translate(503,277)"/>
<path d="M0 0 C4.39718646 1.09929662 4.79997334 1.55450729 7.25 5.0625 C8.03117188 6.16271484 8.03117188 6.16271484 8.828125 7.28515625 C9.21484375 7.85105469 9.6015625 8.41695313 10 9 C10.33 6.03 10.66 3.06 11 0 C12.32 0 13.64 0 15 0 C15 5.94 15 11.88 15 18 C13.68 18 12.36 18 11 18 C9.078125 15.8125 9.078125 15.8125 7.25 13 C6.32960938 11.6078125 6.32960938 11.6078125 5.390625 10.1875 C4.93171875 9.465625 4.4728125 8.74375 4 8 C3.67 11.3 3.34 14.6 3 18 C2.01 18 1.02 18 0 18 C0 12.06 0 6.12 0 0 Z " fill="#FFFFFF" transform="translate(593,277)"/>
<path d="M0 0 C11.01639344 -0.60529634 11.01639344 -0.60529634 15.25 2 C17.50468758 5.86517872 18.03773245 8.63800595 17 13 C15.25 16 15.25 16 12 18 C7.90369758 18.41016292 4.13675889 18.22729444 0 18 C0 12.06 0 6.12 0 0 Z M4 2 C4 6.62 4 11.24 4 16 C8.89388655 15.71062107 8.89388655 15.71062107 13 13.3125 C14.38906225 10.10029355 14.05521374 8.3063364 13 5 C11.34626504 3.00966359 11.34626504 3.00966359 9 2 C7.35 2 5.7 2 4 2 Z " fill="#FFFFFF" transform="translate(452,277)"/>
<path d="M0 0 C3.70718433 0.81785983 5.13329673 2.33819937 7.16015625 5.4765625 C7.85352718 8.3188103 7.85352718 10.6343147 7.16015625 13.4765625 C5.13329673 16.61492563 3.70718433 18.13526517 0 18.953125 C-4.19478356 19.21923815 -6.33149918 18.80854263 -9.90234375 16.4765625 C-12.04751037 13.15501419 -12.59937305 11.29788231 -12.3125 7.4140625 C-10.74731731 0.998107 -5.87069709 -0.37243154 0 0 Z M-6.52734375 4.1015625 C-9.08346143 6.30162628 -9.08346143 6.30162628 -9.46484375 9.4765625 C-9.06963903 12.63083509 -9.06963903 12.63083509 -6.65234375 14.9140625 C-3.99363068 16.68903128 -3.99363068 16.68903128 -1.21484375 16.4765625 C1.7316376 15.23593877 2.75873999 14.35725149 4.16015625 11.4765625 C4.08710861 7.89722798 3.84316752 6.15957377 1.28515625 3.6015625 C-2.00322615 1.86065417 -3.37301372 2.19429318 -6.52734375 4.1015625 Z " fill="#FFFFFF" transform="translate(645.83984375,276.5234375)"/>
<path d="M0 0 C3.70718433 0.81785983 5.13329673 2.33819937 7.16015625 5.4765625 C7.85352718 8.3188103 7.85352718 10.6343147 7.16015625 13.4765625 C5.13329673 16.61492563 3.70718433 18.13526517 0 18.953125 C-4.19478356 19.21923815 -6.33149918 18.80854263 -9.90234375 16.4765625 C-12.04751037 13.15501419 -12.59937305 11.29788231 -12.3125 7.4140625 C-10.74731731 0.998107 -5.87069709 -0.37243154 0 0 Z M-6.52734375 4.1015625 C-9.08346143 6.30162628 -9.08346143 6.30162628 -9.46484375 9.4765625 C-9.06963903 12.63083509 -9.06963903 12.63083509 -6.65234375 14.9140625 C-3.99363068 16.68903128 -3.99363068 16.68903128 -1.21484375 16.4765625 C1.7316376 15.23593877 2.75873999 14.35725149 4.16015625 11.4765625 C4.08710861 7.89722798 3.84316752 6.15957377 1.28515625 3.6015625 C-2.00322615 1.86065417 -3.37301372 2.19429318 -6.52734375 4.1015625 Z " fill="#FFFFFF" transform="translate(623.83984375,276.5234375)"/>
<path d="M0 0 C0.99 0 1.98 0 3 0 C4.38671875 1.53125 4.38671875 1.53125 5.6875 3.5 C6.12449219 4.1496875 6.56148438 4.799375 7.01171875 5.46875 C7.33785156 5.9740625 7.66398437 6.479375 8 7 C8.33 4.69 8.66 2.38 9 0 C10.32 0 11.64 0 13 0 C13 5.28 13 10.56 13 16 C8 15 8 15 5.6875 11.9375 C5.130625 10.968125 4.57375 9.99875 4 9 C3.67 11.31 3.34 13.62 3 16 C2.01 16 1.02 16 0 16 C0 10.72 0 5.44 0 0 Z " fill="#FFFFFF" transform="translate(311,374)"/>
<path d="M0 0 C3.96 0 7.92 0 12 0 C12 0.99 12 1.98 12 3 C9.36 3 6.72 3 4 3 C4 4.65 4 6.3 4 8 C4.763125 7.938125 5.52625 7.87625 6.3125 7.8125 C9 8 9 8 10.8125 9.125 C12.55198782 11.87155972 12.39769128 13.81846974 12 17 C10.9375 18.875 10.9375 18.875 9 20 C2.91819464 20.651622 2.91819464 20.651622 0.0625 18.625 C-1 17 -1 17 -1 15 C2.3 15.33 5.6 15.66 9 16 C9 14.68 9 13.36 9 12 C6.03 11.67 3.06 11.34 0 11 C0 7.37 0 3.74 0 0 Z " fill="#FEF6EF" transform="translate(505,362)"/>
<path d="M0 0 C10.49675535 -0.37047372 10.49675535 -0.37047372 12.8359375 1.3515625 C14.46984593 3.66535229 14.35458018 5.23427458 14 8 C13.34 8.66 12.68 9.32 12 10 C12.36276645 12.82957829 13.09694764 15.29084291 14 18 C12.68 18 11.36 18 10 18 C7 13.92857143 7 13.92857143 7 11 C5.68 11 4.36 11 3 11 C3 13.31 3 15.62 3 18 C2.01 18 1.02 18 0 18 C0 12.06 0 6.12 0 0 Z M3 2 C3 4.31 3 6.62 3 9 C4.98 9 6.96 9 9 9 C9.66 7.68 10.32 6.36 11 5 C10.34 4.01 9.68 3.02 9 2 C5.91634129 1.7497843 5.91634129 1.7497843 3 2 Z " fill="#FFFFFF" transform="translate(657,277)"/>
<path d="M0 0 C1.32 0 2.64 0 4 0 C4 2.64 4 5.28 4 8 C6.64 8 9.28 8 12 8 C12 5.36 12 2.72 12 0 C12.99 0 13.98 0 15 0 C15 5.94 15 11.88 15 18 C14.01 18 13.02 18 12 18 C12 15.36 12 12.72 12 10 C9.36 10 6.72 10 4 10 C4 12.64 4 15.28 4 18 C2.68 18 1.36 18 0 18 C0 12.06 0 6.12 0 0 Z " fill="#FFFFFF" transform="translate(555,277)"/>
<path d="M0 0 C1.65 0 3.3 0 5 0 C6.98 5.94 8.96 11.88 11 18 C9.68 18 8.36 18 7 18 C6.67 16.68 6.34 15.36 6 14 C3.69 14.33 1.38 14.66 -1 15 C-1.33 15.99 -1.66 16.98 -2 18 C-3.32 18 -4.64 18 -6 18 C-4.23536928 11.89262558 -2.30442525 5.92566493 0 0 Z M2 5 C0.5393715 7.64738916 0 8.89448334 0 12 C1.65 12 3.3 12 5 12 C4.34 9.69 3.68 7.38 3 5 C2.67 5 2.34 5 2 5 Z " fill="#FFFFFF" transform="translate(564,306)"/>
<path d="M0 0 C1.32 0 2.64 0 4 0 C4.33 4.62 4.66 9.24 5 14 C8.63619656 15.08084521 8.63619656 15.08084521 11 15 C11.33 10.05 11.66 5.1 12 0 C12.99 0 13.98 0 15 0 C15.08119503 2.24940295 15.13927819 4.49964871 15.1875 6.75 C15.22230469 8.00296875 15.25710938 9.2559375 15.29296875 10.546875 C14.98573914 14.16808795 14.66572684 15.57442873 12 18 C5.22093488 18.86083367 5.22093488 18.86083367 1.76171875 16.421875 C-0.65978962 13.09297214 -0.40068025 10.81836664 -0.25 6.75 C-0.21390625 5.48671875 -0.1778125 4.2234375 -0.140625 2.921875 C-0.09421875 1.95765625 -0.0478125 0.9934375 0 0 Z " fill="#FFFFFF" transform="translate(574,277)"/>
<path d="M0 0 C1.65 0 3.3 0 5 0 C6.98 5.94 8.96 11.88 11 18 C9.68 18 8.36 18 7 18 C6.67 16.68 6.34 15.36 6 14 C3.69 14.33 1.38 14.66 -1 15 C-1.33 15.99 -1.66 16.98 -2 18 C-3.32 18 -4.64 18 -6 18 C-4.23536928 11.89262558 -2.30442525 5.92566493 0 0 Z M2 5 C0.5393715 7.64738916 0 8.89448334 0 12 C1.65 12 3.3 12 5 12 C4.34 9.69 3.68 7.38 3 5 C2.67 5 2.34 5 2 5 Z " fill="#FFFFFF" transform="translate(527,277)"/>
<path d="M0 0 C1.60875 -0.04125 3.2175 -0.0825 4.875 -0.125 C5.77992188 -0.14820313 6.68484375 -0.17140625 7.6171875 -0.1953125 C10 0 10 0 12 2 C12.18896103 4.89740239 12.19715039 7.32968868 11.375 10.125 C10.86965523 12.65172384 11.69436803 13.84954734 13 16 C10.625 15.8125 10.625 15.8125 8 15 C6.6875 12.4375 6.6875 12.4375 6 10 C5.34 10 4.68 10 4 10 C4 11.98 4 13.96 4 16 C2.68 16 1.36 16 0 16 C0 10.72 0 5.44 0 0 Z M4 2 C4 3.98 4 5.96 4 8 C5.32 8 6.64 8 8 8 C9.01111093 4.95086772 9.01111093 4.95086772 8 2 C6.68 2 5.36 2 4 2 Z " fill="#FFFFFF" transform="translate(359,374)"/>
<path d="M0 0 C1.32 0.33 2.64 0.66 4 1 C2.02 4.96 0.04 8.92 -2 13 C-0.35 13 1.3 13 3 13 C3 11.35 3 9.7 3 8 C4.32 8 5.64 8 7 8 C7 9.65 7 11.3 7 13 C7.66 13 8.32 13 9 13 C9 13.99 9 14.98 9 16 C8.34 16 7.68 16 7 16 C7 17.32 7 18.64 7 20 C5.68 20 4.36 20 3 20 C3 18.68 3 17.36 3 16 C0.03 16 -2.94 16 -6 16 C-5.59683075 9.68368172 -3.28767869 5.35006016 0 0 Z " fill="#FEEFF0" transform="translate(467,362)"/>
<path d="M0 0 C3.96 0 7.92 0 12 0 C11 5 11 5 10 8 C10.495 8.37125 10.99 8.7425 11.5 9.125 C13 11 13 11 13.375 14 C13 17 13 17 11.9375 18.875 C8.92517484 20.62409203 6.40497373 20.30401551 3 20 C2.01 19.34 1.02 18.68 0 18 C0 17.01 0 16.02 0 15 C3.3 15.33 6.6 15.66 10 16 C9.67 14.68 9.34 13.36 9 12 C6.50965614 10.70339566 6.50965614 10.70339566 4 10 C5.875 5.125 5.875 5.125 7 4 C4.69 3.67 2.38 3.34 0 3 C0 2.01 0 1.02 0 0 Z " fill="#FEF5F1" transform="translate(418,362)"/>
<path d="M0 0 C1.32 0 2.64 0 4 0 C5.0063655 2.43504509 6.00526413 4.87270864 7 7.3125 C7.28617187 8.00279297 7.57234375 8.69308594 7.8671875 9.40429688 C9.08910744 12.41545674 10 14.71886984 10 18 C8.68 17.67 7.36 17.34 6 17 C6 16.01 6 15.02 6 14 C3.36 14 0.72 14 -2 14 C-2.33 15.32 -2.66 16.64 -3 18 C-4.32 17.67 -5.64 17.34 -7 17 C-6.02412745 14.35290841 -5.04447855 11.70732553 -4.0625 9.0625 C-3.78470703 8.30775391 -3.50691406 7.55300781 -3.22070312 6.77539062 C-1.11328125 1.11328125 -1.11328125 1.11328125 0 0 Z M1 5 C0.34 7.31 -0.32 9.62 -1 12 C0.98 12 2.96 12 5 12 C4.01 9.69 3.02 7.38 2 5 C1.67 5 1.34 5 1 5 Z " fill="#FFFFFF" transform="translate(439,277)"/>
<path d="M0 0 C1.32 0 2.64 0 4 0 C5.0063655 2.43504509 6.00526413 4.87270864 7 7.3125 C7.28617187 8.00279297 7.57234375 8.69308594 7.8671875 9.40429688 C9.08910744 12.41545674 10 14.71886984 10 18 C8.68 17.67 7.36 17.34 6 17 C6 16.01 6 15.02 6 14 C3.36 14 0.72 14 -2 14 C-2.33 15.32 -2.66 16.64 -3 18 C-4.32 17.67 -5.64 17.34 -7 17 C-6.02412745 14.35290841 -5.04447855 11.70732553 -4.0625 9.0625 C-3.78470703 8.30775391 -3.50691406 7.55300781 -3.22070312 6.77539062 C-1.11328125 1.11328125 -1.11328125 1.11328125 0 0 Z M1 5 C0.34 7.31 -0.32 9.62 -1 12 C0.98 12 2.96 12 5 12 C4.01 9.69 3.02 7.38 2 5 C1.67 5 1.34 5 1 5 Z " fill="#FFFFFF" transform="translate(481,249)"/>
<path d="M0 0 C1.32 0 2.64 0 4 0 C5.0063655 2.43504509 6.00526413 4.87270864 7 7.3125 C7.28617187 8.00279297 7.57234375 8.69308594 7.8671875 9.40429688 C9.08910744 12.41545674 10 14.71886984 10 18 C8.68 17.67 7.36 17.34 6 17 C6 16.01 6 15.02 6 14 C3.36 14 0.72 14 -2 14 C-2.33 15.32 -2.66 16.64 -3 18 C-4.32 17.67 -5.64 17.34 -7 17 C-6.02412745 14.35290841 -5.04447855 11.70732553 -4.0625 9.0625 C-3.78470703 8.30775391 -3.50691406 7.55300781 -3.22070312 6.77539062 C-1.11328125 1.11328125 -1.11328125 1.11328125 0 0 Z M1 5 C0.34 7.31 -0.32 9.62 -1 12 C0.98 12 2.96 12 5 12 C4.01 9.69 3.02 7.38 2 5 C1.67 5 1.34 5 1 5 Z " fill="#FFFFFF" transform="translate(432,249)"/>
<path d="M0 0 C2.01822917 0.06510417 4.03645833 0.13020833 6.0546875 0.1953125 C6.7146875 1.5153125 7.3746875 2.8353125 8.0546875 4.1953125 C7.0646875 4.5253125 6.0746875 4.8553125 5.0546875 5.1953125 C5.0546875 4.5353125 5.0546875 3.8753125 5.0546875 3.1953125 C3.0746875 3.1953125 1.0946875 3.1953125 -0.9453125 3.1953125 C-0.9453125 4.1853125 -0.9453125 5.1753125 -0.9453125 6.1953125 C2.0246875 7.1853125 4.9946875 8.1753125 8.0546875 9.1953125 C8.3846875 11.5053125 8.7146875 13.8153125 9.0546875 16.1953125 C5.26708127 18.72038332 2.50077172 18.81591176 -1.9453125 18.1953125 C-3.9453125 16.8203125 -3.9453125 16.8203125 -4.9453125 15.1953125 C-4.9453125 14.5353125 -4.9453125 13.8753125 -4.9453125 13.1953125 C-4.11 13.411875 -4.11 13.411875 -3.2578125 13.6328125 C-0.83147055 14.22300378 1.60375095 14.7187415 4.0546875 15.1953125 C4.3846875 14.2053125 4.7146875 13.2153125 5.0546875 12.1953125 C4.48878906 11.91816406 3.92289062 11.64101563 3.33984375 11.35546875 C2.60636719 10.99324219 1.87289063 10.63101562 1.1171875 10.2578125 C0.02083984 9.71833984 0.02083984 9.71833984 -1.09765625 9.16796875 C-2.9453125 8.1953125 -2.9453125 8.1953125 -3.9453125 7.1953125 C-4.1328125 4.7578125 -4.1328125 4.7578125 -3.9453125 2.1953125 C-1.9453125 0.1953125 -1.9453125 0.1953125 0 0 Z " fill="#FFFFFF" transform="translate(506.9453125,305.8046875)"/>
<path d="M0 0 C2 1.9375 2 1.9375 3 5 C3.02656235 8.08123273 2.77995393 11.01506354 2 14 C0 16 0 16 -3.4375 16.3125 C-7 16 -7 16 -8.69921875 14.79296875 C-10.41511638 12.42781256 -10.40089738 10.90050638 -10.375 8 C-10.38273437 7.13375 -10.39046875 6.2675 -10.3984375 5.375 C-9.41320369 -0.49776626 -5.28103296 -0.75443328 0 0 Z M-5 2 C-7.31332486 5.46998729 -7.33957563 6.92509248 -7 11 C-6.01 12.485 -6.01 12.485 -5 14 C-3.68 13.34 -2.36 12.68 -1 12 C-1 9.36 -1 6.72 -1 4 C-2.32 3.34 -3.64 2.68 -5 2 Z " fill="#FFFFFF" transform="translate(357,356)"/>
<path d="M0 0 C1.32 0 2.64 0 4 0 C5.32 3.63 6.64 7.26 8 11 C9.66832577 8.49751135 10.62381674 6.58850813 11.625 3.8125 C11.88539063 3.09707031 12.14578125 2.38164062 12.4140625 1.64453125 C12.60742188 1.10183594 12.80078125 0.55914062 13 0 C14.32 0.33 15.64 0.66 17 1 C15.02 6.61 13.04 12.22 11 18 C9.35 18 7.7 18 6 18 C4.02 12.06 2.04 6.12 0 0 Z " fill="#FFFFFF" transform="translate(541,306)"/>
<path d="M0 0 C1.65 0.33 3.3 0.66 5 1 C6.65 5.95 8.3 10.9 10 16 C8.68 16 7.36 16 6 16 C5.67 14.68 5.34 13.36 5 12 C3.02 12 1.04 12 -1 12 C-1 13.32 -1 14.64 -1 16 C-2.32 16 -3.64 16 -5 16 C-4.34309381 12.21760329 -3.279869 8.78158474 -1.9375 5.1875 C-1.57527344 4.21167969 -1.21304687 3.23585938 -0.83984375 2.23046875 C-0.42412109 1.12638672 -0.42412109 1.12638672 0 0 Z M1 6 C1 7.32 1 8.64 1 10 C1.99 10 2.98 10 4 10 C3.67 8.68 3.34 7.36 3 6 C2.34 6 1.68 6 1 6 Z " fill="#FFFFFF" transform="translate(347,374)"/>
<path d="M0 0 C1.32 0 2.64 0 4 0 C4 4.29 4 8.58 4 13 C5.32 13 6.64 13 8 13 C9.28446919 10.43106162 9.32977144 8.23423663 9.5625 5.375 C9.64628906 4.37210937 9.73007812 3.36921875 9.81640625 2.3359375 C9.87699219 1.56507813 9.93757813 0.79421875 10 0 C10.99 0 11.98 0 13 0 C13.0810206 2.10353495 13.13919907 4.20795952 13.1875 6.3125 C13.22230469 7.48425781 13.25710938 8.65601563 13.29296875 9.86328125 C13 13 13 13 11.70703125 14.890625 C8.79802694 16.78114496 6.34596513 16.41824564 3 16 C0.57854477 13.67828434 0.03352059 12.34503863 -0.29296875 8.984375 C-0.25816406 7.91703125 -0.22335937 6.8496875 -0.1875 5.75 C-0.14689453 4.13351562 -0.14689453 4.13351562 -0.10546875 2.484375 C-0.07066406 1.66453125 -0.03585937 0.8446875 0 0 Z " fill="#FFFFFF" transform="translate(327,374)"/>
<path d="M0 0 C1.32 0 2.64 0 4 0 C5.98 5.28 7.96 10.56 10 16 C8.35 15.67 6.7 15.34 5 15 C5 14.01 5 13.02 5 12 C3.02 12 1.04 12 -1 12 C-1.33 13.32 -1.66 14.64 -2 16 C-2.99 16 -3.98 16 -5 16 C-3.90301833 10.30860098 -2.45946923 5.25432063 0 0 Z M1 6 C0.67 7.32 0.34 8.64 0 10 C1.32 9.67 2.64 9.34 4 9 C3.67 8.01 3.34 7.02 3 6 C2.34 6 1.68 6 1 6 Z " fill="#FFFFFF" transform="translate(299,374)"/>
<path d="M0 0 C3.96 0 7.92 0 12 0 C12 0.66 12 1.32 12 2 C9.36 2 6.72 2 4 2 C4 3.98 4 5.96 4 8 C6.31 8 8.62 8 11 8 C11 8.66 11 9.32 11 10 C8.69 10 6.38 10 4 10 C4 11.98 4 13.96 4 16 C6.64 16 9.28 16 12 16 C12 16.66 12 17.32 12 18 C8.04 18 4.08 18 0 18 C0 12.06 0 6.12 0 0 Z " fill="#FFFFFF" transform="translate(487,306)"/>
<path d="M0 0 C3.96 0 7.92 0 12 0 C12 0.66 12 1.32 12 2 C9.36 2 6.72 2 4 2 C4 3.98 4 5.96 4 8 C6.31 8 8.62 8 11 8 C11 8.66 11 9.32 11 10 C8.69 10 6.38 10 4 10 C4 11.98 4 13.96 4 16 C6.64 16 9.28 16 12 16 C12 16.66 12 17.32 12 18 C8.04 18 4.08 18 0 18 C0 12.06 0 6.12 0 0 Z " fill="#FFFFFF" transform="translate(472,277)"/>
<path d="M0 0 C3.96 0 7.92 0 12 0 C12 0.66 12 1.32 12 2 C9.03 2 6.06 2 3 2 C3 3.98 3 5.96 3 8 C5.64 8 8.28 8 11 8 C11 8.66 11 9.32 11 10 C8.36 10 5.72 10 3 10 C3 11.98 3 13.96 3 16 C5.97 16 8.94 16 12 16 C12 16.66 12 17.32 12 18 C8.04 18 4.08 18 0 18 C0 12.06 0 6.12 0 0 Z " fill="#FFFFFF" transform="translate(449,306)"/>
<path d="M0 0 C3.96 0 7.92 0 12 0 C12 0.66 12 1.32 12 2 C9.03 2 6.06 2 3 2 C3 3.98 3 5.96 3 8 C5.64 8 8.28 8 11 8 C11 8.66 11 9.32 11 10 C8.36 10 5.72 10 3 10 C3 11.98 3 13.96 3 16 C5.97 16 8.94 16 12 16 C12 16.66 12 17.32 12 18 C8.04 18 4.08 18 0 18 C0 12.06 0 6.12 0 0 Z " fill="#FFFFFF" transform="translate(488,277)"/>
<path d="M0 0 C3.96 0 7.92 0 12 0 C12 0.66 12 1.32 12 2 C9.36 2 6.72 2 4 2 C4 3.98 4 5.96 4 8 C6.64 8 9.28 8 12 8 C12 8.66 12 9.32 12 10 C9.36 10 6.72 10 4 10 C4 12.64 4 15.28 4 18 C2.68 18 1.36 18 0 18 C0 12.06 0 6.12 0 0 Z " fill="#FFFFFF" transform="translate(472,306)"/>
<path d="M0 0 C3.5625 0.1875 3.5625 0.1875 5.5625 2.1875 C5.41221611 6.24516511 5.15405055 8.4883948 2.5 11.625 C1.5409375 12.3984375 1.5409375 12.3984375 0.5625 13.1875 C3.5325 13.6825 3.5325 13.6825 6.5625 14.1875 C6.5625 14.8475 6.5625 15.5075 6.5625 16.1875 C2.6025 16.1875 -1.3575 16.1875 -5.4375 16.1875 C-3.4375 12.1875 -3.4375 12.1875 -1.25 9.6875 C0.84536086 7.38531395 0.84536086 7.38531395 0.3125 4.875 C0.065 4.318125 -0.1825 3.76125 -0.4375 3.1875 C-1.7575 3.5175 -3.0775 3.8475 -4.4375 4.1875 C-4.4375 -0.08869962 -4.33823476 0.23663099 0 0 Z " fill="#FFFFFF" transform="translate(338.4375,355.8125)"/>
<path d="M0 0 C2 0.8125 2 0.8125 3.3125 2.4375 C4.290771 5.81698163 3.75559614 8.41231738 3 11.8125 C2.34 12.4725 1.68 13.1325 1 13.8125 C-1.625 13.4375 -1.625 13.4375 -4 12.8125 C-4.19573608 11.37609829 -4.38127816 9.93830496 -4.5625 8.5 C-4.66691406 7.69949219 -4.77132813 6.89898437 -4.87890625 6.07421875 C-5 3.8125 -5 3.8125 -4 0.8125 C-2 -0.1875 -2 -0.1875 0 0 Z " fill="#F9373F" transform="translate(450,365.1875)"/>
<path d="M0 0 C4.55555556 0.55555556 4.55555556 0.55555556 6 2 C6.203125 4.21484375 6.203125 4.21484375 6.25 6.9375 C6.28867187 8.28134766 6.28867187 8.28134766 6.328125 9.65234375 C6.21984375 10.42707031 6.1115625 11.20179688 6 12 C3 14 3 14 0.875 13.6875 C-1 13 -1 13 -2 12 C-2.1245486 10.35769636 -2.17568524 8.70947724 -2.1875 7.0625 C-2.20167969 6.16660156 -2.21585937 5.27070313 -2.23046875 4.34765625 C-2 2 -2 2 0 0 Z " fill="#F77326" transform="translate(405,365)"/>
<path d="M0 0 C3.3 0 6.6 0 10 0 C10 0.66 10 1.32 10 2 C7.69 2 5.38 2 3 2 C3 3.32 3 4.64 3 6 C3.78375 5.95875 4.5675 5.9175 5.375 5.875 C8 6 8 6 10 8 C10.25 11 10.25 11 10 14 C8 16 8 16 4.5 16.1875 C1 16 1 16 -1 15 C-1 14.01 -1 13.02 -1 12 C-0.01 11.67 0.98 11.34 2 11 C2.33 11.66 2.66 12.32 3 13 C3.99 12.67 4.98 12.34 6 12 C5.67 11.01 5.34 10.02 5 9 C3.35 8.67 1.7 8.34 0 8 C0 5.36 0 2.72 0 0 Z " fill="#FFFFFF" transform="translate(376,356)"/>
<path d="M0 0 C1.66561399 1.66561399 1.17115945 3.65962705 1.1875 5.9375 C1.20167969 6.83339844 1.21585937 7.72929687 1.23046875 8.65234375 C1 11 1 11 -1 13 C-3.625 12.625 -3.625 12.625 -6 12 C-6.19573608 10.56359829 -6.38127816 9.12580496 -6.5625 7.6875 C-6.66691406 6.88699219 -6.77132813 6.08648437 -6.87890625 5.26171875 C-7 3 -7 3 -6 0 C-3.49749232 -1.25125384 -2.59701335 -0.83774624 0 0 Z " fill="#F79A22" transform="translate(495,366)"/>
<path d="M0 0 C3.375 -0.125 3.375 -0.125 7 0 C7.66 0.66 8.32 1.32 9 2 C8.84971611 6.05766511 8.59155055 8.3008948 5.9375 11.4375 C4.9784375 12.2109375 4.9784375 12.2109375 4 13 C6.97 13.495 6.97 13.495 10 14 C10 14.66 10 15.32 10 16 C6.37 16 2.74 16 -1 16 C0.04447917 11.82208333 1.33364961 10.24961453 4 7 C4.33 6.01 4.66 5.02 5 4 C4.01 4 3.02 4 2 4 C1.01 4 0.02 4 -1 4 C-0.67 2.68 -0.34 1.36 0 0 Z " fill="#FFFFFF" transform="translate(363,356)"/>
<path d="M0 0 C4.62 0 9.24 0 14 0 C14 0.66 14 1.32 14 2 C12.35 2 10.7 2 9 2 C9 7.28 9 12.56 9 18 C7.68 18 6.36 18 5 18 C5 12.72 5 7.44 5 2 C3.35 2 1.7 2 0 2 C0 1.34 0 0.68 0 0 Z " fill="#FFFFFF" transform="translate(538,277)"/>
<path d="M0 0 C1.32 0 2.64 0 4 0 C4 5.28 4 10.56 4 16 C6.64 16 9.28 16 12 16 C12 16.66 12 17.32 12 18 C8.04 18 4.08 18 0 18 C0 12.06 0 6.12 0 0 Z " fill="#FFFFFF" transform="translate(411,306)"/>
<path d="M0 0 C1.32 0 2.64 0 4 0 C5.75 2 5.75 2 7 4 C7.99 2.68 8.98 1.36 10 0 C11.32 0.33 12.64 0.66 14 1 C13.65066406 1.49628906 13.30132812 1.99257813 12.94140625 2.50390625 C9.85889249 7.10584605 8.34610059 10.46239061 8 16 C7.01 16 6.02 16 5 16 C4.89042969 15.40832031 4.78085937 14.81664062 4.66796875 14.20703125 C3.732075 9.54278029 2.67286745 6.00930117 0 2 C0 1.34 0 0.68 0 0 Z " fill="#FFFFFF" transform="translate(373,374)"/>
<path d="M0 0 C3.63 0 7.26 0 11 0 C11 0.66 11 1.32 11 2 C8.36 2 5.72 2 3 2 C3 3.98 3 5.96 3 8 C5.64 8 8.28 8 11 8 C11 8.66 11 9.32 11 10 C8.36 10 5.72 10 3 10 C3 12.64 3 15.28 3 18 C2.01 18 1.02 18 0 18 C0 12.06 0 6.12 0 0 Z " fill="#FFFFFF" transform="translate(434,306)"/>
<path d="M0 0 C4.62 0 9.24 0 14 0 C14 0.66 14 1.32 14 2 C12.02 2 10.04 2 8 2 C8 7.28 8 12.56 8 18 C7.01 18 6.02 18 5 18 C5 12.72 5 7.44 5 2 C3.35 2 1.7 2 0 2 C0 1.34 0 0.68 0 0 Z " fill="#FFFFFF" transform="translate(518,306)"/>
<path d="M0 0 C0.99 0 1.98 0 3 0 C3.08074203 2.62561109 3.1403623 5.24875676 3.1875 7.875 C3.22520508 8.99455078 3.22520508 8.99455078 3.26367188 10.13671875 C3.29296875 12.3046875 3.29296875 12.3046875 3 16 C-0.66865241 18.44576827 -2.67200343 18.23607254 -7 18 C-7.66 17.67 -8.32 17.34 -9 17 C-9 16.01 -9 15.02 -9 14 C-7.2984375 14.2784375 -7.2984375 14.2784375 -5.5625 14.5625 C-4.386875 14.706875 -3.21125 14.85125 -2 15 C-0.05909174 13.05909174 -0.60080565 9.52706098 -0.4375 6.9375 C-0.35371094 5.64714844 -0.26992188 4.35679687 -0.18359375 3.02734375 C-0.12300781 2.02832031 -0.06242187 1.02929688 0 0 Z " fill="#FFFFFF" transform="translate(420,249)"/>
<path d="M0 0 C0.99 0 1.98 0 3 0 C3 5.28 3 10.56 3 16 C5.64 16 8.28 16 11 16 C11 16.66 11 17.32 11 18 C7.37 18 3.74 18 0 18 C0 12.06 0 6.12 0 0 Z " fill="#FFFFFF" transform="translate(578,306)"/>
<path d="M0 0 C0.99 0 1.98 0 3 0 C3.05384521 2.29141286 3.09272087 4.58318188 3.125 6.875 C3.14820313 8.15117187 3.17140625 9.42734375 3.1953125 10.7421875 C3 14 3 14 1 16 C-2.5 16.3125 -2.5 16.3125 -6 16 C-6.66 15.01 -7.32 14.02 -8 13 C-4.98968256 12.06576355 -4.13349732 11.95550089 -1 13 C-0.67 8.71 -0.34 4.42 0 0 Z " fill="#FFFFFF" transform="translate(288,374)"/>
<path d="M0 0 C0.99 0 1.98 0 3 0 C3 5.94 3 11.88 3 18 C2.01 18 1.02 18 0 18 C0 12.06 0 6.12 0 0 Z " fill="#FFFFFF" transform="translate(535,306)"/>
<path d="M0 0 C0.99 0 1.98 0 3 0 C3 5.94 3 11.88 3 18 C2.01 18 1.02 18 0 18 C0 12.06 0 6.12 0 0 Z " fill="#FFFFFF" transform="translate(426,306)"/>
<path d="M0 0 C0.99 0 1.98 0 3 0 C3 5.94 3 11.88 3 18 C2.01 18 1.02 18 0 18 C0 12.06 0 6.12 0 0 Z " fill="#FFFFFF" transform="translate(468,249)"/>
<path d="M0 0 C1.32 0.33 2.64 0.66 4 1 C2.02 4.96 0.04 8.92 -2 13 C-2.99 13 -3.98 13 -5 13 C-5.33 12.34 -5.66 11.68 -6 11 C-4.78515625 8.3984375 -4.78515625 8.3984375 -3.0625 5.375 C-2.21365234 3.87066406 -2.21365234 3.87066406 -1.34765625 2.3359375 C-0.90292969 1.56507813 -0.45820313 0.79421875 0 0 Z " fill="#FEE5E6" transform="translate(467,362)"/>
</svg>
